<?xml version="1.0" encoding="UTF-8"?>
<svg xmlns="http://www.w3.org/2000/svg" version="1.1" viewBox="0 0 566.93 566.93">
  <!-- Generator: Adobe Illustrator 30.2.1, SVG Export Plug-In . SVG Version: 2.1.1 Build 1)  -->
  <defs>
    <style>
      .st0 {
        fill: #00933a;
      }

      .st1 {
        fill: #231815;
      }
    </style>
  </defs>
  <g id="_レイヤー_2" data-name="レイヤー_2">
    <path class="st0" d="M112.8,297.3c3.17,0,4.78,2.43,4.83,4.89l28.98,2.08-23.11-55.92-37.76-8.56-8.7,53.95c.27,1.85.43,3.71.52,5.58l30.48,2.18c.31-2.21,1.9-4.2,4.77-4.2Z"/>
    <rect class="st0" x="104.59" y="241.9" width="23.05" height="20.21" transform="translate(-56.81 35.01) rotate(-13.81)"/>
    <path class="st0" d="M79.37,284.63c.14-10.73,2.29-21.3,6.27-31.26.5-1.25-.55-2.75-1.75-3.08-1.42-.39-2.57.49-3.08,1.75-4.13,10.36-6.3,21.44-6.45,32.59-.04,3.22,4.96,3.22,5,0h0Z"/>
    <path class="st0" d="M79.71,265.58c-.22,6.88-.45,14.12-4.03,20.22-1.63,2.78,2.69,5.3,4.32,2.52,4.04-6.89,4.47-14.96,4.71-22.75.1-3.22-4.9-3.22-5,0h0Z"/>
    <path class="st0" d="M80.26,315.05c1.95-1.45,3.88-1.35,6.4-1.23s5.23.18,7.62-1.03c1.19-.61,2.08-1.6,3.03-2.5s1.76-2.01,2.33-3.18c1.17-2.42,1.6-5.12,1.53-7.79-.08-2.93-.67-5.86-1.53-8.66-.68-2.19-3.33-2.31-4.57-.6-.88,1.22-1.72,2.7-1.72,4.26s1.01,3.04,2.64,3.22c3.77.42,4.22-4.27,3.65-6.88-.21-.95-1.15-1.68-2.08-1.79-1.06-.13-1.88.35-2.49,1.19-2.04,2.84-2.42,6.3-2.79,9.67-.29,2.65-.63,5.78-2.75,7.52-.86.7-2.2,1.26-3.46,1.55-.59.13-.99.18-1.7.18-.63,0-1.16-.08-1.46-.21-.05-.02-.67-.41-.34-.15-.12-.1-.24-.21-.34-.33.14.21.12.19-.04-.05-.08-.13-.16-.27-.23-.41.09.24.08.22-.02-.06-.1-.31-.18-.62-.23-.94.08.47-.01-.31-.02-.34-.02-.34-.02-.69,0-1.03s.04-.69.08-1.03c-.05.43.08-.51.1-.59l-4.91-.66c-.36,2.82.34,5.72,1.84,8.13,1.09,1.75,4.06,1.57,4.57-.6,1.07-4.59,1.42-9.31.96-14l-4.91.66c1.38,4.24,3.27,8.3,5.68,12.05,1.07,1.67,3.22,1.54,4.32,0,2.8-3.91,4.82-8.37,5.95-13.05l-4.57.6c.89,1.91,1.44,4.7,2.19,6.96.85,2.58,2.08,5.14,4.26,6.84,1.36,1.06,2.89.91,3.93-.51,2.56-3.5,3.78-9.21,2.2-13.33-.91-2.36-2.73-4.08-5.29-4.43-2.74-.38-5.22.73-7.06,2.73-.97,1.05-1.79,2.26-2.56,3.46-.36.57-.72,1.14-1.09,1.7-.19.29-.39.59-.59.88-.09.12-.55.75-.36.52l3.93.51c.46.62.17,1.75-.18,2.11.15-.15.19-.07-.05,0-.19.13-.23.17-.14.11.19-.11.04-.05-.44.19h-1.33.04c-.5-.37-1-.76-1.49-1.14l.02.03-.34-1.26.07-.53c.17-.38.2-.47.09-.28-.01.06-.17.26-.17.27h3.54c-.16-.17-.37-.47-.4-.72-.17-1.34-1.03-2.5-2.5-2.5-1.22,0-2.67,1.15-2.5,2.5.21,1.67.73,2.99,1.86,4.25.82.92,2.73,1.02,3.54,0,.69-.88,1.49-1.8,1.48-2.99-.02-1.87-1.92-2.96-3.58-2.31s-3.06,3.14-1.83,4.79c.85,1.13,2.83,1.91,3.93.51.89-1.14,1.68-2.32,2.45-3.54.63-.98,1.35-2.11,1.89-2.74.37-.43.77-.86,1.22-1.2-.37.28.38-.21.46-.25.26-.13.27-.14.03-.02.14-.05.29-.1.44-.13.49-.14-.3-.06.27-.05.11,0,.96.08.63.02.2.04.4.1.59.17-.57-.19.12.1.26.19-.5-.33.01.06.13.17.12.14.09.09-.09-.13.07.11.15.21.21.33.06.12.35.88.17.31.06.2.13.4.19.6.08.28.13.57.18.86-.08-.56,0,.25.01.37.03.6.01,1.21-.04,1.81,0,.02-.11.8-.03.32-.05.33-.12.66-.19.98-.13.57-.28,1.13-.47,1.68-.03.08-.37.96-.19.53-.09.21-.19.43-.3.64-.27.53-.57,1.02-.92,1.5l3.93-.51c-1.86-1.45-2.57-3.24-3.25-5.49-.74-2.47-1.33-4.95-2.42-7.3-.92-1.97-4.09-1.39-4.57.6-1.04,4.3-2.87,8.26-5.45,11.86h4.32c-2.18-3.4-3.92-7.02-5.18-10.86-.38-1.18-1.49-1.98-2.74-1.79-1.12.17-2.29,1.2-2.17,2.46.42,4.26.19,8.5-.78,12.67l4.57-.6c-1.09-1.74-1.42-3.57-1.16-5.6.15-1.22-1.07-2.32-2.17-2.46s-2.53.55-2.74,1.79c-.46,2.64-.68,5.51.65,7.95,1.49,2.75,4.74,3.76,7.7,3.47s6.17-1.46,8.28-3.71c2.25-2.4,3-5.57,3.41-8.74s.42-6.27,2.31-8.9l-4.57-.6c.12.55.12.4.11.84,0,.15,0,.3-.01.45-.01.35.11-.36,0-.08-.22.55.28-.33-.06.17.3-.44.66-.71,1.51-.71,1.12,0,1.64.63,1.97,1.57.11.32.03.17.03-.05,0,.23-.16.43,0,.18.06-.1.08-.27.13-.38-.1.27-.04.09.05-.06.28-.45.54-.89.85-1.32l-4.57-.6c.87,2.81,1.41,5.35,1.36,8.22-.04,2.6-.67,5.04-2.61,6.75-.49.43-.96,1.02-1.34,1.26-.63.41-.74.39-1.5.57-.83.2-2.53.12-3.78.05-3.2-.16-6.52-.1-9.21,1.89-1.08.8-1.63,2.16-.9,3.42.62,1.07,2.33,1.71,3.42.9h0Z"/>
    <path class="st0" d="M77.7,284.32c-2.24,7.93-1.45,16.36,2.04,23.8.57,1.22,2.33,1.53,3.42.9,1.25-.73,1.47-2.19.9-3.42-2.91-6.21-3.39-13.37-1.53-19.95.88-3.1-3.95-4.43-4.82-1.33h0Z"/>
    <path class="st0" d="M103.16,306.79c3.22,0,3.22-5,0-5s-3.22,5,0,5h0Z"/>
    <path class="st0" d="M119.41,294c.76,3.76,2.25,7.36,4.37,10.56,1.57,2.37,5.19.89,4.57-1.93-.55-2.52-1.94-4.84-3.92-6.49-1.28-1.06-3.85-.94-4.18,1.1-.46,2.88-.34,5.73.6,8.51.32.96,1.3,1.95,2.41,1.84,3.33-.35,6.63-.89,9.88-1.71,2.99-.76,6.61-1.5,8.88-3.75s2.71-5.29,2.21-8.19c-.55-3.16-2.58-5.81-4.58-8.21-1.8-2.16-5.58.71-3.93,3.03.97,1.36,3.33,4.34,1.71,5.82-.22.2-.16.15-.57.16-.66.02-1.36.05-2,.21-1.63.39-2.64,1.65-2.73,3.31-.08,1.42,1.21,2.4,2.5,2.5,3.9.3,7.81.26,11.69-.17,3.47-.38,7.74-.58,8.64-4.73.32-1.46.12-2.9-.06-4.36-.24-1.95-.45-3.9-.62-5.85-.35-3.91-.58-7.83-.67-11.75s-.06-7.85.1-11.77c.07-1.8.19-3.59.3-5.39.1-1.54-.12-3.24-1.31-4.36-1.41-1.32-3.56-1.12-4.81.28s-1.06,3.4-1.12,5.12c-.13,3.97-.26,7.95-.39,11.92-.29,8.78-.58,17.55-.87,26.33h5c-1.24-12.71-1.33-25.51-.26-38.24.11-1.35-1.23-2.5-2.5-2.5-1.45,0-2.39,1.15-2.5,2.5-1.07,12.73-.98,25.53.26,38.24.31,3.15,4.89,3.27,5,0,.22-6.71.44-13.41.67-20.12.11-3.39.22-6.79.34-10.18.05-1.49.1-2.98.15-4.47.03-.83.05-1.66.08-2.48.03-.89.26-2.1.1-2.98-.14-.75,0-.23.02-.19l-2.78.2c-.05-.04-.07-.08-.04-.14-.13.54-.04,1.24-.08,1.81-.12,1.71-.21,3.43-.27,5.14-.13,3.27-.16,6.54-.11,9.81.1,6.54.58,13.07,1.39,19.57.11.87.46,2.47-.03,3.1.15-.19.5-.09-.16-.02-.4.04-.81.16-1.21.22-.9.15-1.81.26-2.72.35-3.73.38-7.47.41-11.21.12l2.5,2.5v.22c-.21.37-.43.74-.64,1.1-.02.02-.32.23-.39.2.18.09.68-.03.91-.04.86-.05,1.65-.18,2.44-.56,1.44-.7,2.45-2,3.02-3.47,1.33-3.42-.47-6.74-2.43-9.48l-3.93,3.03c1.91,2.3,5.6,7.63,1.6,9.88-2.01,1.13-4.59,1.61-6.81,2.13-2.52.6-5.07,1.04-7.64,1.31l2.41,1.84c-.63-1.89-.91-3.86-.6-5.85l-4.18,1.1c1.4,1.16,2.25,2.5,2.64,4.28l4.57-1.93c-1.91-2.88-3.19-5.98-3.87-9.37-.27-1.32-1.84-2.09-3.08-1.75-1.38.38-2.01,1.75-1.75,3.08h0Z"/>
    <path class="st0" d="M144.53,253.32v.65c-.01.34.06.67.22.96.1.31.27.58.52.8.23.24.49.42.8.52.3.16.62.23.96.22l.66-.09c.42-.12.79-.33,1.1-.64l.39-.51c.23-.39.34-.81.34-1.26v-.65c.01-.34-.06-.67-.22-.96-.1-.31-.27-.58-.52-.8-.23-.24-.49-.42-.8-.52-.3-.16-.62-.23-.96-.22l-.66.09c-.42.12-.79.33-1.1.64l-.39.51c-.23.39-.34.81-.34,1.26h0Z"/>
    <path class="st0" d="M152.14,301.76c.52,3.9,1.89,7.64,3.94,11l2.82-3.67c-.19-.03-.58-.2-.45-.1.06.05.08.05.13.11-.3-.42-.36-.71-.48-1.24-.21-.9-.13-1.96-.25-2.95-.31-2.67-1.42-5.33-4.25-6.09-1.89-.5-3.52,1.23-3.08,3.08.69,2.87,2.04,5.41,3.9,7.7,1.47,1.8,4.17.2,4.27-1.77s-.44-3.81-1.58-5.34c-.83-1.12-2.12-1.59-3.42-.9-2.86,1.53-2.85,5.39-.94,7.66,2.33,2.78,6.25,2.06,9.33,1.34s6.56-1.66,9.24-3.67,4.55-4.82,4.94-8.27h-5c.11,1.85.22,3.7.33,5.55l1.24-2.16c1.33-.7,1.44.63.84-.67-.33-.73-.52-1.58-.77-2.35-.59-1.8-1.19-3.6-1.78-5.4-1.16-3.52-2.32-7.05-3.48-10.57-.76-2.32-4.1-2.43-4.82,0-1.05,3.53-1.22,7.12-.71,10.75.17,1.21,1.65,1.95,2.74,1.79,1.2-.18,2.19-1.19,2.17-2.46-.08-5.02-.89-10.02-2.45-14.8-.7-2.16-4.35-2.59-4.82,0-1.49,8.26-2.08,16.64-1.67,25.02.16,3.23,4.8,3.21,5,0,.36-5.77-.36-11.59-2.09-17.11-.37-1.18-1.5-1.98-2.74-1.79-1.32.2-2.01,1.18-2.17,2.46-.92,7.66-.96,15.39-.11,23.05.14,1.24.85,2.3,2.17,2.46,1.15.14,2.5-.55,2.74-1.79,1.79-9.31,1.25-18.93-1.73-27.94-.72-2.18-4.29-2.57-4.82,0-1.34,6.46-1.09,13.12.85,19.43.66,2.16,4.42,2.59,4.82,0,.65-4.22.56-8.39-.36-12.56l-4.57,1.93c2.48,5.54,5.48,10.84,9.01,15.78.94,1.31,1.96,2.78,3.74,2.86,1.51.07,2.76-.83,3.44-2.14,1.41-2.74,1.88-6.07,1.55-9.12s-4.76-3.25-5,0c-.22,2.95-.44,5.9-.67,8.86-.21,2.77,4.46,3.46,4.91.66.78-4.86,1.56-9.73,2.34-14.59.21-1.33-.34-2.69-1.75-3.08-1.23-.34-2.81.42-3.08,1.75l-1.82,9.05h4.82c-.64-4.28-1.29-8.56-1.93-12.84-.37-2.43-4.38-2.34-4.82,0-.65,3.41-.91,6.85-.67,10.31.22,3.19,4.89,3.24,5,0,.16-4.71.07-9.42-.27-14.13-.16-2.26-2.57-3.17-4.27-1.77-2.28,1.9-3.48,4.55-3.81,7.45l4.66-1.26c-.23-.47-.27-1.01-.17-1.52l-4.91-.66c.48,8.05,1.74,16.05,3.8,23.84.52,1.97,3.61,2.57,4.57.6,2.85-5.89,3.74-12.33,2.65-18.78-.25-1.49-2.45-2.41-3.67-1.49-2.24,1.68-3.25,4.09-2.67,6.86s4.99,2.14,4.91-.66c-.34-12.06-1.97-24.07-4.84-35.79-.68-2.77-4.88-2.13-4.91.66l-.16,15.11h5c.03-7.67-1.87-15.22-5.49-21.98-.98-1.82-4.15-1.52-4.57.6-2.21,11.16-3.46,22.49-3.71,33.86h5c.02-10.26-.71-20.49-2.11-30.65-.17-1.21-1.66-1.95-2.74-1.79-1.19.18-2.2,1.19-2.17,2.46.15,6.48.85,12.93,2.05,19.3.46,2.46,4.25,2.3,4.82,0,1.13-4.55,2.14-9.12,3.04-13.71h-4.82c1.57,5.02,3.13,10.04,4.7,15.06.69,2.2,4.32,2.55,4.82,0,.92-4.66,1.13-9.39.51-14.1-.16-1.23-.83-2.3-2.17-2.46-1.22-.14-2.41.57-2.74,1.79-.54,1.97-1.08,3.95-1.62,5.92h4.82c-.45-1.65-.89-3.3-1.34-4.95-.67-2.49-4.04-2.25-4.82,0-1.68,4.84-2.36,10.01-2,15.13.22,3.18,4.96,3.25,5,0,.13-9.56-.51-19.1-1.82-28.57l-3.08,3.08c5.17,1.54,10.55,2.35,15.94,2.42l-1.77-4.27c-2.64,2.77-4.1,6.45-3.97,10.29.11,3.21,5.03,3.23,5,0-.04-3.96-.07-7.93-.11-11.89-.02-1.83-2.13-3.2-3.76-2.16-2.69,1.72-4.63,4.3-5.42,7.4l4.82,1.33c.64-3.38,1.77-6.98,4.35-9.4s6.29-2.19,9.06-.12c3.27,2.44,4.27,6.71,4.15,10.59-.05,1.43-.04,3.89-1.24,4.92-.89.76-2.15-.09-3-.99-1.47-1.58-1.67-3.65-1.82-5.71-.21-2.91-.43-5.68-1.64-8.38-.85-1.9-4.22-1.46-4.57.6-.66,3.92-.96,7.88-.75,11.86.2,3.67.55,7.81,1.87,11.26.59,1.54,1.61,2.99,3.29,3.45,2.11.57,3.86-.79,5.47-1.92,3.13-2.21,6.13-4.61,8.98-7.18h-3.54c.5.4-.06-.44-.13-.73-.05-.22-.14.12-.06,0,.09-.13-.35.17.08.08.19-.04.23.29-.2-.06-1.14-.94-1.68-2.26-2.28-3.59-1.88-4.2-3.75-8.4-5.62-12.6-1.01-2.26-4.82-1.13-4.66,1.26.39,5.7.77,11.39,1.16,17.09l4.91-.66c-2.03-6.17-4.07-12.34-6.1-18.51-.66-2-3.45-2.52-4.57-.6-1.2,2.08-1.84,4.24-2.11,6.62l4.91-.66c-.29-1.84.64-4.12,2.42-4.82,1.91-.75,3.76.23,4.3,2.26.4,1.5.46,3.09.62,4.62.19,1.79.38,3.59.57,5.38.38,3.59.76,7.17,1.14,10.76.33,3.15,4.87,3.28,5,0,.31-7.68.63-15.36.94-23.04l-4.27,1.77c3.11,3.15,5.74,6.66,7.89,10.54.54.96,1.77,1.44,2.82,1.15,1.15-.32,1.7-1.3,1.84-2.41.55-4.42-.67-9.03-3.29-12.63-1.67-2.29-5.1-.94-4.57,1.93.5,2.68,1,5.36,1.5,8.03s1.13,5.28,1.47,7.93c.05.42-.21,1.31.24.91-.19.16-.66.05-1.05-.22s-.66-.92-.74-1.69c-.12-1.03.05-2.12.21-3.14.21-1.33-.34-2.69-1.75-3.08s-2.68.45-3.08,1.75c-1.26,4.13,1.19,9.17,5.62,10.01,2.14.41,4.38-.05,6.13-1.35,1.98-1.47,2.89-3.65,3.03-6.07.26-4.51-1.18-9.51-3.26-13.47s-5.25-7.25-9.29-9.04c-4.65-2.07-9.87-2.27-14.46.08-2.86,1.47-.34,5.78,2.52,4.32,3.19-1.64,7.12-1.28,10.26.32,3.51,1.78,6.02,4.98,7.47,8.59.79,1.96,1.33,4.07,1.6,6.16.2,1.51.61,3.86-.66,4.98-2.17,1.9-4.94-.55-4.14-3.19l-4.82-1.33c-.51,3.28-.88,7.11,1.75,9.64,2.1,2.03,5.79,2.5,7.98.37,2.67-2.58,1.04-7.06.46-10.17-.72-3.9-1.45-7.79-2.17-11.69l-4.57,1.93c2.19,2.99,3.07,6.43,2.61,10.1l4.66-1.26c-2.35-4.22-5.28-8.11-8.67-11.55-1.57-1.59-4.18-.35-4.27,1.77-.31,7.68-.63,15.36-.94,23.04h5c-.5-4.73-1-9.46-1.5-14.18-.41-3.9-.17-9.02-3.28-11.93-2.62-2.44-6.91-2.82-9.94-.93-3.48,2.16-4.77,6.28-4.15,10.17.19,1.21,1.64,1.96,2.74,1.79,1.32-.2,2.03-1.18,2.17-2.46.16-1.46.69-2.83,1.42-4.09l-4.57-.6c2.03,6.17,4.07,12.34,6.1,18.51.84,2.54,5.11,2.29,4.91-.66-.39-5.7-.77-11.39-1.16-17.09l-4.66,1.26c1.37,3.08,2.74,6.15,4.12,9.23,1.14,2.55,2.07,5.51,4.05,7.57,1.85,1.93,4.74,2.61,7,.97,2.14-1.56,3.27-5,.9-6.93-1.09-.89-2.45-.98-3.54,0-2.19,1.98-4.47,3.87-6.86,5.61-.61.44-1.23.88-1.85,1.31-.3.21-.6.42-.91.62-.48.3-.72.17.03.28.38.06.28.42.3.15,0-.05-.2-.38-.21-.41-.25-.61-.36-1.32-.51-1.96-1.35-5.95-1.52-12.19-.5-18.2l-4.57.6c1.19,2.65.85,5.86,1.26,8.68.38,2.63,1.47,5.12,3.49,6.91s4.53,2.79,7.09,1.98c2.93-.92,4.4-3.81,4.86-6.66.89-5.57,0-11.71-3.86-16.04s-9.78-5.75-14.82-3.2-7.41,8.4-8.38,13.58c-.25,1.33.37,2.7,1.75,3.08,1.28.35,2.74-.43,3.08-1.75.47-1.84,1.51-3.39,3.12-4.42l-3.76-2.16c.04,3.96.07,7.93.11,11.89h5c-.09-2.54.74-4.9,2.5-6.75,1.49-1.57.43-4.24-1.77-4.27-4.97-.07-9.84-.83-14.61-2.25-2.02-.6-3.32,1.3-3.08,3.08,1.25,9.02,1.77,18.14,1.64,27.24h5c-.33-4.72.28-9.32,1.82-13.8h-4.82c.45,1.65.89,3.3,1.34,4.95.64,2.38,4.17,2.38,4.82,0,.54-1.97,1.08-3.95,1.62-5.92l-4.91-.66c.56,4.26.5,8.56-.33,12.77h4.82c-1.57-5.02-3.13-10.04-4.7-15.06-.69-2.2-4.32-2.55-4.82,0-.9,4.6-1.91,9.17-3.04,13.71h4.82c-1.12-5.93-1.73-11.93-1.87-17.97l-4.91.66c1.34,9.71,1.96,19.52,1.94,29.32,0,3.22,4.93,3.22,5,0,.24-10.93,1.41-21.81,3.53-32.53l-4.57.6c3.21,5.99,4.84,12.67,4.81,19.46-.01,3.22,4.97,3.22,5,0l.16-15.11-4.91.66c2.77,11.3,4.33,22.83,4.66,34.46l4.91-.66c-.08-.38.04-.97.37-1.21l-3.67-1.49c.85,5.03.08,10.34-2.14,14.92l4.57.6c-1.94-7.38-3.16-14.9-3.62-22.51-.07-1.24-.89-2.3-2.17-2.46-1.16-.14-2.49.55-2.74,1.79-.39,1.91-.17,3.62.67,5.37.47.99,1.82,1.42,2.82,1.15,1.14-.31,1.71-1.3,1.84-2.41.19-1.6,1.14-2.91,2.35-3.91l-4.27-1.77c.33,4.7.42,9.41.27,14.13h5c-.2-3.01-.07-6.01.49-8.98h-4.82l1.93,12.84c.37,2.44,4.35,2.33,4.82,0l1.82-9.05-4.82-1.33c-.78,4.86-1.56,9.73-2.34,14.59l4.91.66c.22-2.95.44-5.9.67-8.86h-5c.13,1.23.17,2.48-.04,3.7-.1.58-.24,1.15-.41,1.7-.09.31-.24.62-.32.94-.2.82-.56-.15.77-.09l1.26.34c-.49-.21-.77-.84-1.08-1.28-.48-.68-.95-1.37-1.41-2.07-.92-1.39-1.8-2.81-2.64-4.25-1.68-2.88-3.2-5.86-4.56-8.9-.5-1.12-2.09-1.48-3.12-1.02-1.17.51-1.72,1.7-1.45,2.95.72,3.24.87,6.62.36,9.9h4.82c-1.68-5.44-2.01-11.19-.85-16.77h-4.82c2.69,8.14,3.35,16.85,1.73,25.29l4.91.66c-.85-7.67-.81-15.39.11-23.05l-4.91.66c1.62,5.13,2.25,10.41,1.91,15.78h5c-.39-7.93.08-15.88,1.49-23.69h-4.82c1.42,4.38,2.19,8.86,2.27,13.47l4.91-.66c-.38-2.72-.07-5.48.71-8.09h-4.82c1.52,4.62,3.04,9.24,4.56,13.86,1.09,3.31,2.82,10.84,7.97,8.12.73-.39,1.29-1.32,1.24-2.16-.11-1.85-.22-3.7-.33-5.55-.2-3.27-4.64-3.15-5,0-.43,3.78-4.85,5.6-7.98,6.48-1.8.5-4,1.32-5.9,1.14-.67-.07-.85-.14-1.02-.53.07.17-.09-.34,0-.35.19-.04-.97.94-.17.52l-3.42-.9c.67.89.96,1.71.9,2.82l4.27-1.77c-1.31-1.61-2.13-3.49-2.61-5.49l-3.08,3.08c.74.2.13.07.11.01-.08-.23.11.14.11.16.09.37.29.78.37,1.28.16.98.11,2.22.27,3.3.37,2.43,1.75,5.13,4.44,5.51,2.01.29,4.07-1.63,2.82-3.67-1.84-3.02-2.96-6.3-3.43-9.8-.18-1.34-1.9-2.07-3.08-1.75-1.45.4-1.93,1.73-1.75,3.08h0Z"/>
    <path class="st0" d="M183.54,249.54c0,1.51-.49,2.27-1.48,2.28.29,0,.27,0-.05-.04.28.08.27.07-.04-.03.26.17.31.21.16.11.24.28.54.5.77.79-.18-.22.22.34.26.39.7,1.12,1.05,2.36,1.3,3.82.53,3.03.28,6.96,1.54,10.19.41,1.04,1.23,1.84,2.41,1.84,1.03,0,2.21-.77,2.41-1.84.87-4.68,1.13-9.73.01-14.4-1-4.22-4.27-8.26-8.96-8.12-1.35.04-2.5,1.12-2.5,2.5s1.14,2.54,2.5,2.5c1.09-.03,2.07.45,2.92,1.53.72.92,1.19,2.55,1.43,3.89.62,3.48.44,7.29-.21,10.77h4.82c-.86-2.22-.96-4.52-1.14-6.86s-.51-4.63-1.43-6.8c-.86-2.02-2.44-4.3-4.62-5.01-2.61-.86-5.53.86-4.91,3.82.27,1.32,1.83,2.09,3.08,1.75,1.37-.38,2.02-1.75,1.75-3.08h0Z"/>
    <path class="st0" d="M78.22,284.81c-1.62,2.72-2.76,5.7-3.33,8.81l4.57-.6c-.37-.68-.73-1.36-1.1-2.03-.52-.97-1.78-1.43-2.82-1.15-1.14.31-1.72,1.3-1.84,2.41-.32,2.97.69,5.81,1.64,8.57s1.9,5.75,2.94,8.59c.46,1.25,1.04,2.47,2.22,3.19,1.36.84,2.99.68,4.41.11,2.7-1.07,5.11-2.63,7.21-4.65,2.33-2.23-1.21-5.77-3.54-3.54-1.46,1.4-3.15,2.59-5.02,3.37-.19.08-.38.15-.57.22-.65.1-.55.22.3.37-.03.03-.13.09-.14-.25-.01-.49-.4-1.17-.56-1.63-.18-.52-.35-1.04-.53-1.55-.73-2.15-1.47-4.29-2.2-6.44s-1.39-4.12-1.15-6.35l-4.66,1.26c.37.68.73,1.36,1.1,2.03.97,1.8,4.18,1.54,4.57-.6.49-2.72,1.41-5.24,2.82-7.61,1.65-2.77-2.67-5.29-4.32-2.52h0Z"/>
    <path class="st0" d="M127.61,303.36c-.39-.99-.92-1.88-1.76-2.57-.73-.6-1.49-1.07-2.35-1.47-1.39-.64-2.91-1.12-4.14-2.06l.51.39c-.2-.16-.38-.32-.55-.5-.9-.95-2.64-.97-3.54,0-.94,1.02-.96,2.52,0,3.54,1.92,2.04,4.82,2.33,6.97,3.98l-.51-.39c.28.22.53.46.75.75l-.39-.51c.16.22.29.45.4.69l-.25-.6.03.08c.24.63.55,1.14,1.15,1.49.54.31,1.33.45,1.93.25s1.19-.57,1.49-1.15.49-1.31.25-1.93h0Z"/>
    <path class="st0" d="M163.73,306.41s-.04-.58,0-.58c0,0-.12.55.02,0,.02-.06.03-.12.06-.19.06-.17.04-.12-.07.15,0-.14.23-.4.3-.5h-4.32c.21.44.03.09,0,0,.04.14.09.27.13.42s.07.28.1.42c-.03-.1-.02-.5,0-.02,0,.14-.01.3,0,.43,0-.04.1-.42.02-.13-.03.12-.07.24-.09.35-.05.27.25-.42.02-.04,0,0-.15.29-.18.29l.09-.12c.13-.16.12-.16-.03,0-.27.06.06.39.12-.06,0,.06-.27.13-.29.18.01-.04.47-.13.21-.09-.12.02-.41,0-.11.04.45.05-.39-.04.08,0,.4.03-.19-.01-.24-.08.12.16.31.17.05.02-.12-.07-.24-.13-.36-.2s-.23-.15-.34-.23c.08.05.37.32.02.01-.41-.36-.81-.73-1.19-1.12-.36-.37-.7-.75-1.03-1.15-.05-.06-.32-.4-.13-.15s-.07-.09-.12-.16c-.18-.25-.36-.5-.53-.76-.61-.91-1.13-1.88-1.58-2.88-.05-.1-.17-.44.01.03-.04-.11-.09-.22-.13-.34-.13-.32-.25-.66-.43-.96-.45-.8-1.19-1.45-2.07-1.72-1.76-.52-3.44.57-4.01,2.23-.38,1.1-.24,2.3.11,3.39.85,2.68,1.99,5.29,3.36,7.75.64,1.14,2.3,1.62,3.42.9s1.58-2.2.9-3.42c-.58-1.04-1.12-2.1-1.6-3.19-.06-.14-.12-.27-.18-.41.04.09.18.43,0-.02-.11-.28-.22-.55-.33-.83-.21-.56-.41-1.12-.6-1.68-.09-.28-.19-.56-.27-.85-.02-.06-.04-.23-.06-.26.04.05.02.64.04.24,0-.06.01-.16,0-.22-.08-.29-.12.53-.04.25.03-.11.13-.39-.03,0-.1.22-.11.24-.02.08l-.66.67c-.51.3-1.3.31-1.81.02-.06-.04-.56-.4-.49-.46-.02.02.2.27.15.29,0,0-.21-.52-.09-.21.26.68.56,1.35.88,2,1.03,2.08,2.45,4.01,4.1,5.64,2.02,2,4.84,3.68,7.66,2.16,1.28-.69,2.25-2.01,2.61-3.41.46-1.79.04-3.53-.72-5.16-.36-.78-1.34-1.24-2.16-1.24-.93,0-1.65.5-2.16,1.24-.71,1.03-1.08,2.38-.98,3.63s1.08,2.56,2.5,2.5c1.27-.06,2.6-1.1,2.5-2.5h0Z"/>
    <path class="st0" d="M157.04,255.57c-.02-.33-.11-.64-.3-.93-.16-.29-.37-.53-.64-.7-.24-.22-.52-.37-.85-.45-.22-.03-.44-.06-.66-.09-.45,0-.87.12-1.26.34-.17.13-.34.26-.51.39-.31.31-.52.68-.64,1.1l-.03.1c-.09.07-.19.13-.27.21-.43.47-.77,1.11-.73,1.77.02.39.04.77.07,1.16-.01.34.06.67.22.96.1.31.27.58.52.8.17.13.34.26.51.39.29.18.6.28.93.3.22.06.44.06.66,0,.33-.02.64-.11.93-.3.17-.13.34-.26.51-.39.31-.31.52-.68.64-1.1.29-.86.59-1.72.88-2.57.1-.33.12-.66.04-1Z"/>
    <path class="st0" d="M513,278.05c-3.63-8-8.03-15.74-10.27-24.11-.27-.07-.53-.17-.78-.3-.62-.2-1.16-.55-1.61-1.03-.03-.03-.05-.05-.07-.08-.94.13-1.97,0-3.04-.51-1.37-.65-2.9-1.62-4.34-2.79-.16-.1-.31-.2-.46-.3-.76-.47-1.31-1.05-1.69-1.68-.93-.98-1.74-2.03-2.35-3.13-.41-.01-.84-.06-1.29-.18-3.33-.82-6.8-.9-10.23-.5-1.81.83-3.5,1.66-4.62,1.87-1.91.36-3.76.43-5.56.5-2.01.67-4.08,1.4-6.18,1.96-.96.81-2.18,1.19-3.38,1.2-.11.31-.24.61-.43.9-.65,1.01-1.33,1.86-2.16,2.73-2.31,2.43-7.5,1.62-8.29-1.92-.36-.23-.72-.48-1.09-.76-1.26-.93-2.31-1.55-3.44-2-.22,0-.44,0-.67-.04-3.29-.44-6.38-1.27-9.52-2.25-4.42.03-8.76-.9-12.89-2.53-.92-.03-1.85,0-2.75.09-1.21.12-2.9.69-4.36.79-.21.27-.41.55-.59.84-.1.17-.18.34-.27.52.07.6.03,1.26-.17,1.96-.43,1.58-.92,2.94-1.88,4.28-2.43,3.4-7.4,2.69-8.9-.4-.52-.1-1.04-.18-1.6-.22-1.93-.12-3.27-1.11-4.04-2.42-1.26-.46-2.45-.79-3.96-.19-3.12,1.24-5.69,2.65-9.17,2.61-3.71-.05-5.28-3.39-4.71-6.2-2.18.23-4.28,1.07-6.13,2.33.09-.71.18-1.42.28-2.11.62-4.24-.02-8.79-2.14-12.36-1.11-.4-2.22-.78-3.34-1.13-1.02-.32-2.51-.85-4.2-1.37-.76,1.33-2.14,2.3-4.14,2.3-1.38,0-2.46-.46-3.25-1.18-.63.31-1.38.49-2.24.49-1.4,0-2.5-.47-3.29-1.22-.79.73-1.85,1.22-3.23,1.22-.25,0-.49-.02-.73-.05-1.21,1.49-2.06,3.27-2.37,5.32-.09.62-.17,1.24-.26,1.86-.08.13-.14.27-.16.41-.09.53-.13,1.05-.11,1.56,0,.05-.01.09-.02.14.01,0,.02,0,.03,0,.02.43.08.86.2,1.29.27.98.76,1.83,1.41,2.6.29.35.89.55,1.33.55s.95-.19,1.27-.51c.52,2.79-1.05,6.04-4.72,6.04-1.11,0-2.03-.3-2.76-.8.09.21.19.45.21.48.97,2.01.79,4.35-.69,5.93.95,1.65,1.48,3.46,1.71,5.52.2,1.75-.85,3.23-2.28,4.11-.27,2.25-1.86,4.32-4.78,4.32-5.09,0-6.15-6.24-3.2-8.86-.03-.06-.07-.12-.11-.19-.03-.05-.04-.07-.05-.09-.03-.02-.04-.03-.07-.06-.26-.25-.5-.51-.76-.75-.18-.17-.38-.33-.57-.49-.14.92-.22,1.85-.23,2.8-6.74-6.03-16.14-7.43-24.97-5.35-2.72.64-5.34,1.65-7.92,2.75l-.25-1.2c-.29-1.4-.84-2.69-1.56-3.87-.16-2.35-.81-4.68-1.93-6.74.04-.11.07-.23.11-.34,1.29-1.04,1.68-2.86.88-4.43-.85-1.67-3.44-1.59-4.32,0,0,.02-.02.03-.02.05-.18-.03-.37-.05-.52-.08-.13-.03-.25-.05-.38-.07-1.37-.99-2.94-1.75-4.69-2.15-2.68-.61-5.47-.51-8.06.21-.77-.08-1.53-.18-2.3-.25-1.02-2.06-4.78-1.7-4.74,1.1.01.91.02,1.82.04,2.74-.1.26-.17.52-.23.79-1.46,1.61-2.58,3.58-3.15,5.88-.3,1.23-.57,2.47-.82,3.71.72,1.56.67,3.5-.17,5,1.51,2.04,1.32,5.26-.58,6.99.7,1.02.97,2.31.86,3.55,1.91,2.45,1.26,6.77-1.94,7.96.15,3.3.45,6.6.93,9.92-.44-.82-.99-1.59-1.68-2.28-.54-.54-1.14-.74-1.73-.73-.53-.97-1.08-1.92-1.67-2.85-.21-.33-.5-.59-.83-.79.42-.65.71-1.36.71-2.16,0-.64-.17-1.21-.45-1.71-.44-.33-.81-.74-1.1-1.2-1.41-1.01-3.49-1.2-5.02-.31-1.15.68-1.83,1.73-2.68,2.71-.93,1.07-2.23,1.47-3.53,1.95-.76.28-1.53.56-2.29.84-.04,0-.09,0-.13,0-1.76,0-3.8.77-5.47,1.27-1.33.4-2.64.88-3.93,1.4-2.49.41-5.04.53-7.51.08-3.31-.6-6.29-1.98-8.97-4.01-.26-.2-.58-.3-.91-.33-.22-1.32-.49-2.64-.82-3.94,4.6-.48,9.2-.96,13.78-1.55,1.04-.13,2.07-.28,3.09-.47.79.2,1.58.38,2.37.51,1.69.29,3.27.22,4.85-.47.41-.18,1.09-.38,1.53-.65.95,1.82,4,1.44,4.6-.61.42-1.43.83-2.86,1.25-4.3.26-.38.43-.83.46-1.36,0-.08,0-.16,0-.24.58-1.98,1.16-3.97,1.73-5.95.1-.35.19-.69.27-1.04.3-.13.58-.32.82-.62,1.11-1.37,1.97-2.89,2.54-4.5.92-.36,1.65-1.22,1.68-2.32.02-.98.04-1.97.07-2.95.03-1.36-.84-2.15-1.88-2.35-.41-.38-.95-.62-1.6-.62-1.41,0-2.81.03-4.22.1-2.83-.88-5.88-1.23-8.7-1.38-1.5-.08-3.03-.04-4.53.14-3.3-.44-6.71.63-9.13,2.95-2.13.26-3.97,1.62-4.95,3.47-1.08.29-2.15.67-3.22,1.15-3.6,1.6-6.78,4.19-9.26,7.23-.63.77-.92,1.75-.56,2.67-2.12,2.1-3.79,4.68-4.44,7.62-.33,1.5-.41,3-.3,4.49-.93-.07-1.9.32-2.35,1.2-1.02,1.99-1.1,4.04-.63,6.01.15,6.14,2.32,12.2,6.74,16.58.58.97,1.43,1.66,2.4,2.06.06.05.12.09.18.14.02,1.9,1.52,2.56,3.1,3.01.46.13.91.26,1.37.39.25.48.44.99.58,1.52.18.65.66,1.18,1.26,1.51.21,1.29.56,2.58,1.21,3.62,2.07,3.27,5.78,2.21,8.56.36.33.28.75.47,1.24.53,1.18.14,2.43-.55,2.73-1.77.22.1.44.15.68.17.03.57.07,1.15.12,1.72.31,3.16,4.87,3.27,5,0,.02-.49.03-.99.03-1.48.95.09,1.97-.4,2.49-1.22,1.23.3,2.64-.22,2.97-1.64.26.1.54.15.84.15.76,0,1.64-.43,2.1-1.1.3.46.59.92.9,1.36,1.33,1.92,3.87,1.2,4.51-.45.5-.34.88-.83,1.03-1.4.79.24,1.75.07,2.35-.41.31-.24.53-.53.68-.83,1.13.89,3,.73,3.73-.66.55-1.05.91-2.17,1.09-3.31.52.84,1.52,1.42,2.75,1.19,1.47-.27,2.87-.87,4.08-1.74.29.4.56.8.86,1.2.99,1.3,2.48,1.46,3.51.75,3.36,6.49,8.64,11.66,16.58,13.4,1.46.32,2.98.44,4.51.37-.4-2.75,1.18-5.84,4.77-5.84,4.05,0,5.55,3.95,4.51,6.89.47.96,1.05,1.86,1.79,2.66,1.06,1.63,2.46,2.92,4.21,3.86,1.71.9,3.6,1.58,5.53,1.89.26.2.53.38.79.56,2.42-1.29,5.07-2.04,7.92-2.56,4.59-.84,9.52-1.08,12.92-4.63.56-.58,1.15-.97,1.76-1.22.02-.07.05-.13.07-.2,1.21-3.78,2.43-7.98,3.42-12.37.27-.12.52-.28.78-.42-1.64-3.55-2.89-7.31-3.54-11.14-.46-2.67.67-5.38,3.49-6.15,2.42-.66,5.7.83,6.15,3.49.78,4.56,2.37,8.86,4.65,12.88.58,1.02.76,2.01.66,2.93.94.42,1.75,1.12,2.25,2.15.68-.02,1.32.12,1.91.43.62.2,1.16.55,1.61,1.03l.34.34c.62.62,1.05,1.36,1.29,2.21.06.44.12.89.18,1.33,0,.2-.02.41-.04.6,1.08.5,2.24.9,3.41,1.24.1,0,.19.02.29.03,3.49.21,7.01-.44,10.55-1-.03-1.87.8-3.86,2.31-4.85,2.1-1.39,4.16-1.91,6.64-2.06,1.23-.07,2.55.53,3.51,1.45.59-.21,1.2-.49,1.85-.9.14-.09.29-.18.43-.27-1.1-2.75-2.16-5.41-3.34-7.71-5.62-10.91-11.93-21.3-12.26-33.92-.16-6.45,9.84-6.42,10,0,.27,10.7,6.14,19.65,10.89,28.88,1.18,2.29,2.19,4.63,3.19,6.99,3.38.11,4.91,3.02,4.59,5.67,1.29,1.06,2.44,2.37,3.51,3.72,1.07,1.36,2.4,2.88,3.51,4.51.41-.11.82-.19,1.24-.19l.39-.17c.44-.06.89-.12,1.33-.18.05,0,.1,0,.15,0,.48.03.99.05,1.45.19.33.1.98.36,1.28.53.28.16.84.59,1.07.82.15.17.28.35.41.53.31.31.52.68.64,1.1.04.08.07.17.11.25,7.64-1.88,15.6-4.53,21.67-9.46-2.99-3.91-4.9-8.37-4.99-13.01-.06-3.35,2.61-4.95,5.21-4.82.13-1.69.25-3.38.28-5.05-2.93-4.39-.95-9.72-.68-14.86.33-6.41,10.33-6.43,10,0-.13,2.56-1.39,5.72-1.03,8.26.17,1.19.6,2.21.99,3.28-.26.03-.51.09-.74.23-.13.1-.25.2-.38.29-.23.23-.39.51-.48.83-.03.24-.09.51-.08.76,0,.25.05.51.1.76.02.09.05.18.08.27.09.23.18.47.31.68.13.21.29.4.45.59.06.07.13.14.2.2.18.15.37.31.58.44.04.02.08.05.13.07.17.08.34.15.51.21-.14,2-.44,4.17-.67,6.37.64.6,1.11,1.35,1.24,2.21.06.4.12.8.19,1.2,3.72,1.23,7.01,3.71,10.04,6.17,3.11,2.52,6.68,5.59,8.97,9.12.29.19.58.36.87.52.28-.04.56-.08.87-.08,1.74,0,2.99.73,3.79,1.8.58.13,1.17.24,1.77.33.72-.47,1.61-.75,2.69-.75,1.5,0,2.64.55,3.44,1.38.15.01.29.02.44.04.13.01.28.03.44.05,4.45-1.4,8.93-2.7,13.06-4.9,2.33-1.24,4.55-.52,5.97.97,2.84-1.78,5.54-3.73,8.03-5.71,1.95-1.55,3.95-3.05,5.93-4.58-.95-.88-1.64-2.1-1.81-3.54-.98-7.9.94-15.72,4.46-22.78.02-.03.04-.06.05-.09Z"/>
  </g>
  <g id="_レイヤー_1" data-name="レイヤー_1">
    <g>
      <path class="st1" d="M72.92,285.4c.53-17.74,2.21-25.77,10.24-40.94,1.06-2.12,2.21-4.06,4.59-7.24,4.94,1.59,9.79,3.88,15,4.77,5.82-.88,16.06-4.5,21.27-6.53l7.85,7.85c1.32,9.53,4.24,23.38,7.41,30.27,1.41,3.09,6.97,13.85,12.62,21.09,2.12,2.65,4.5,4.94,8.56,8.03-3.88,1.41-19.32,6.97-31.24,14.03-4.41-3.44-12-11.38-15.18-15.79l-2.65,1.06c.53,3.44,1.41,7.5,4.77,14.29-11.38,1.32-24.18,3.79-31.77,8.38l-7.68-8.12c-2.65-9.62-4.06-21.97-3.79-31.15ZM104.07,306.49c-2.03-4.76-2.74-9.26-3.35-13.68,3.26-1.32,8.38-3.44,10.68-4.68,2.21,6.44,6.27,13.5,11.03,17.56,8.65-5.03,19.85-9.44,24.18-11.12-7.06-6.27-13.77-18.71-17.38-26.74-3.18-6.88-6.09-19.94-7.24-28.06-4.32,1.59-13.59,4.77-19.24,5.56-4.76-.79-9.27-2.65-13.77-4.24-2.47,3.44-4.24,7.41-6.09,11.21-4.77,9.71-6.27,18.09-6.71,33.18-.26,8.29,1.06,19.5,2.91,27.09,6.27-3.18,17.38-5.12,24.97-6.09ZM97.81,275.16c0-4.41.97-10.32,3.97-19.41,1.68,8.56,3.27,13.06,4.15,17.21.53,2.56,3.35,8.82,3.88,9.97-3.27,1.06-8.56,2.82-11.03,3.53-.79-5.38-.97-8.29-.97-11.29Z"/>
      <path class="st1" d="M142.29,288.13c-.79-5.03-1.15-9.79-1.15-14.38,0-8.74,1.32-16.85,3.27-25.06,5.38.35,10.68,2.03,15.88,2.38,5.38-6.71,13.32-10.5,21-10.5,6.62,0,12.97,2.65,17.65,8.38,4.59,5.65,9.18,14.47,9.62,24.44-2.56,2.82-6.88,4.85-11.38,6.71-3.44,1.41-12,4.41-17.47,6.35l-4.15-4.15c.09.88.53,3.35,1.41,6.79s6.97,15.09,11.03,19.32c-6,7.77-22.77,11.91-29.65,11.91l-7.15-7.06c-4.59-5.91-8.12-19.68-8.91-25.15ZM176.52,301.55c-3.27-4.15-8.82-15-9.79-18.71-1.41-5.47-1.59-6.97-1.85-12.8-.09-3.18,1.15-8.12,4.24-8.12,2.82,0,4.94,4.32,6.27,12.97,4.41-1.5,9.27-3.18,13.5-4.94,4.41-1.77,7.85-3.53,9.44-4.94.71-15-7.5-21.44-16.5-21.44-3.27,0-6.71.88-9.79,2.56-4.59,2.47-7.24,4.41-10.15,8.29-5.12,0-9.88-1.76-14.91-2.29-1.5,6.53-2.56,13.59-2.56,21.44,0,4.41.35,9.09,1.15,14.03.79,5.29,4.15,17.65,7.32,22.32,5.74-.18,19.24-3.88,23.65-8.38Z"/>
      <path class="st1" d="M206.44,307.9c-6.62-6.62-11.74-14.47-11.74-25.41,0-20.83,23.12-37.5,42.27-37.5,4.5,0,12.88.44,19.85,2.03l7.06,7.06c-3.53,6.27-6.88,11.74-9,17.83l6.71,6.09c2.12,8.65,7.32,17.21,15.79,25.5-12,8.12-27.8,16.85-44.74,16.85-10.77,0-19.5-5.65-26.21-12.44ZM265.12,295.99c-5.74-6-10.5-13.68-12.44-19.15-5.12,4.59-12.79,9.79-24.8,9.79-2.65,0-16.5-1.5-15.62-7.15,1.24-7.32,9.35-9.62,16.59-9.62,2.03,0,4.06.18,5.82.53,3.35.62,4.59,1.06,7.5,2.65.35-3.88,1.85-8.21,3.71-12.35,1.85-4.15,4.06-8.12,5.82-11.38-4.06-.62-10.77-.97-14.74-.97-17.91,0-38.91,15.71-38.91,34.15,0,16.24,11.82,27.44,27.53,27.44s29.91-7.59,39.53-13.94ZM227.88,283.37c5.03,0,9.18-.97,12.97-2.74-1.68-.26-3.44-.44-5.03-.44-4.59,0-8.74,1.06-11.21,3.27l3.27-.09Z"/>
      <path class="st1" d="M295.39,313.81c-6.35,3.79-13.94,6.97-18.44,8.65l-6.97-6.97c-4.76-13.24-7.68-22.68-8.47-37.06-.09-1.06-.09-2.12-.09-3.44,0-10.59,1.94-28.41,4.15-37.68l29.38,4.32,7.15,7.06c-.97,3.97-1.85,7.5-2.47,10.68,5.38-3.09,10.5-4.85,12.8-4.94,9.18-.26,13.15,3.79,17.38,8.21,3.27,3.53,6.35,6.18,7.77,10.85.53,1.59.71,3.62.71,5.91,0,8.29-2.65,19.77-3.09,25.77-.26,3.88,3,1.15,5.12,7.24.26.88.71,2.12,1.94,5.03-7.68,4.24-29.83,9.97-41.03,12l-7.24-7.06,1.41-8.56ZM330.95,308.87c-.35-1.06-.35-3.18-1.76-3.09-.44,0-.79.09-1.15.09-2.12,0-2.74-.71-3.26-2.47-.18-.53-.26-1.24-.26-1.85,0-1.06.18-2.12.35-3.09,1.15-7.77,2.91-19.68,2.91-26.65,0-1.85-.18-3.44-.44-4.41-1.76-6-5.56-9.88-14.82-9.71-3.09.09-15.88,5.38-24.18,15.88-.53-2.65-.71-5.21-.71-7.77,0-6.71,1.41-13.59,3.35-21.44l-22.85-3.35c-1.68,7.85-3.44,24.53-3.44,34.33l.09,2.91c.44,7.77,1.5,14.12,2.91,19.59,1.32,5.03,2.82,9.35,4.24,13.41,6.09-2.38,18.35-8.29,22.5-12.79-1.24-2.12-4.76-8.74-5.21-14.56,2.03-4.32,6.35-10.06,10.77-10.06.35,0,.71,0,1.06.09,1.85.35,2.74,3.62,2.74,8.29,0,3.09-.35,6.79-1.06,10.76-1.41,8.65-3.71,18.62-4.76,25.24,8.65-1.68,26.91-6.44,33-9.35Z"/>
      <path class="st1" d="M351.61,313.28c-6.79-6.44-9.18-10.77-12.35-18.79-3.18-7.94-4.32-16.06-4.32-24.18,0-7.24.88-14.56,2.21-21.97,2.47.35,5.38.62,8.65.79v-.09c-4.85-2.12-7.5-5.74-7.5-9.53,0-6.18,8.12-10.06,18.09-10.06,9.18,0,13.41,4.5,16.85,8.12,3.53,3.88,6.71,6.27,6.71,10.06,0,2.29-2.21,5.12-3.79,6.62l.88.88.18,7.41c-.18,5.21-5.74,2.47-6.26,7.77l-.18,3.79c0,15.53,9.44,25.68,18.8,34.68-7.41,2.82-11.47,4.85-15.62,6.71-3.09,1.32-10.24,3.44-14.82,4.68l-7.5-6.88ZM365.55,305.43c3.71-1.68,7.24-3.44,10.94-4.94-6.97-6.88-16.06-17.38-16.06-33.35,0-1.41,0-2.82.18-4.24.62-6.44,6.26-5.47,6.18-7.85,0-.88-.09-1.94-.18-3-3.71.53-8.03.79-12.18.79-5.65,0-10.94-.35-14.56-.79-.53,2.82-1.68,11.12-1.68,18.18,0,7.85.88,14.91,4.15,23.03,2.65,6.71,4.77,11.56,10.59,16.32,4.5-.88,8.56-2.38,12.62-4.15ZM369.61,240.57c0-3.09-3.44-7.77-13.24-7.77s-14.74,3.88-14.74,6.71c0,3.18,4.06,8.38,14.82,8.38,8.91,0,13.15-4.41,13.15-7.32ZM377.2,262.28v.26-.26Z"/>
      <path class="st1" d="M384.88,293.34c-6.88-12.44-10.15-27.97-10.15-41.56,4.94-2.47,11.65-3.62,19.68-3.62,2.21,0,4.41.09,6.79.26l5.74,5.56c1.41-4.5,2.74-7.77,4.85-11.82l34.5,6.53,7.06,7.06-.79,4.32c-1.94,8.38-7.59,4.94-8.21,5.91-3.35,4.85-5.91,10.15-7.41,18.71-.97,5.12-1.59,10.5-1.59,15.79,0,4.5.44,9,1.59,13.41-11.56,2.29-20.38,5.74-27.53,10.15l-7.06-7.06c-7.06-5.82-12.71-15.09-17.47-23.65ZM425.82,304.28c-.71-3.09-.97-6.44-.97-9.97,0-5.56.71-11.56,1.76-17.21,1.59-9.09,4.32-14.82,7.94-20.03,1.41-2.03,3.88-1.32,5.82-1.5,1.24-.18,1.85-3.09,2.03-4.24l-28.77-5.47c-4.41,8.91-7.24,23.65-9.09,35.47-4.76-9.88-7.06-20.91-6.79-29.83-1.24-.09-2.47-.09-3.71-.09-6.53,0-12.44.79-15.97,2.38.09,11.65,3.26,26.3,9.71,37.94,4.59,8.29,9.79,16.68,14.82,21.18,6-3.53,14.38-6.79,23.21-8.65Z"/>
      <path class="st1" d="M465.27,318.22c-6.35-2.21-10.77-6.26-14.83-9.88-7.68-6.88-11.21-15.88-11.21-25.06,0-18.62,13.77-40.41,37.68-40.41,11.21,0,14.82,1.94,24.97,10.32,7.76,6.35,11.12,16.32,11.12,27.8,0,4.06-.44,8.29-1.24,12.71-1.32,0-1.94-.09-2.03-.18l4.94,4.85c-3.44,7.68-14.12,18.62-30.62,20.83-2.65.35-5.38.62-8.12.62-3.62,0-7.24-.44-10.68-1.59ZM476.56,308.87c14.03-1.85,23.3-10.5,26.21-15.18-3.18-.62-7.41-1.41-11.91-2.65-4.94-1.32-10.24-3.09-14.56-5.38-1.24,1.32-2.47,2.74-3.97,3.88-1.68,1.32-3.62,2.29-6.35,2.29-4.15,0-5.56-3.97-5.56-8.03,0-1.77.26-3.53.71-5.03,11.21,1.76,30,4.24,40.86,4.5.62-3.53.88-7.06.88-10.41,0-18.71-9.44-26.74-26.03-26.74-21.62,0-34.33,20.12-34.33,37.15,0,10.32,4.94,20.74,16.77,24.71,3.09,1.06,6.35,1.41,9.62,1.41,2.56,0,5.12-.18,7.68-.53ZM469.86,274.1c-2.12-.18-4.24-.44-7.15-1.24.71-6.35,5.12-15.09,11.82-14.74,2.91.18,3.88,3.18,3.88,7.24,0,2.91-.53,6.35-1.24,9.53-3.09-.53-5.21-.62-7.32-.79Z"/>
    </g>
  </g>
</svg>