<?xml version="1.0" encoding="UTF-8"?>
<svg xmlns="http://www.w3.org/2000/svg" version="1.1" viewBox="0 0 566.93 566.93">
  <!-- Generator: Adobe Illustrator 30.2.1, SVG Export Plug-In . SVG Version: 2.1.1 Build 1)  -->
  <defs>
    <style>
      .st0 {
        fill: #231815;
      }

      .st1 {
        fill: #df2514;
      }
    </style>
  </defs>
  <g id="_レイヤー_2" data-name="レイヤー_2">
    <path class="st1" d="M249.4,299.3c-.23-.05-.46-.08-.68-.12.23-1.65.54-3.3.64-4.51.29-3.57.63-7.14,1.01-10.7.77-7.22,1.85-14.38,2.86-21.57.8-5.68.72-12.05-3.56-16.44-4.75-4.87-11.82-4.57-18.03-3.43-3.77.69-7.57,1.98-10.19,4.48-4.28,1.12-8.32,2.94-11.76,5.77-.61.11-1.24.21-1.89.31.17-.81.36-1.62.6-2.43,1.78-6.06-3.87-9.96-9.23-9.23-3.9.54-6.09-2.51-9.33-3.81-4.23-1.7-8.74-.03-11.3,3.62-2.23,3.17-2.59,6.96-3.16,10.71-.26,1.69-.5,3.39-.73,5.08-1.54-5.24-4.24-10.26-8.33-13.86-12.35-10.88-31.53-7.12-44.27,1.04-2.53,1.62-4.42,3.98-5.46,6.64-3.84,2.25-6.09,6.57-6.68,11.36-.55,4.56-.68,9.28-.23,13.89-.31-.22-.62-.43-.94-.63-.11-.21-.24-.42-.36-.63-1.41-4.87-5.39-8.87-11.97-8.87-.23,0-.44.02-.66.03-.23-.01-.45-.03-.68-.03-.49,0-.97.03-1.44.07,1.07-1.11,2.01-2.35,2.75-3.71,4.17-7.67,6.21-19.47,1.17-26.69-.75-.02-1.4-.2-1.97-.46-.78.7-1.85,1.15-3.2,1.15-3.12,0-4.73-2.35-4.82-4.77-.18.02-.37.05-.55.07-.24,0-.48-.02-.71-.05-.78,1.21-2.11,2.07-3.99,2.07-3.19,0-4.8-2.46-4.83-4.93-6.31-3.94-14.07-1.93-20.64,1.36-6.1,3.06-11.42,7.87-16.39,12.49-6.38,5.94-9.69,12.4-10.74,21.06-1.69,13.92-.86,29.23,10.17,39.37,1.59,1.46,3.24,2.66,4.93,3.65,7.75,8.35,21.42,11.12,33.12,8.78,5.36-1.07,9.71-3.68,13.37-7.23.24.11.47.22.72.32,10.86,4.32,21.27-3.69,23.97-13.65,2.84,4.11,6.72,7.57,11.86,9.95,17.48,8.11,35.21.26,48.55-11.65,2.03,6.46,5.16,12.58,9.7,18.07,3.99,4.84,9.84,2.04,11.78-2.55.58.22,1.19.39,1.81.51,3.05.61,5.3.1,6.95-1.13.38.11.76.23,1.16.32,9.39,2.23,13.39-12.23,3.99-14.46-.35-.08-.68-.19-1.01-.31-.1-3.7-.57-7.25-.89-9.66-.69-5.07-1.74-10.2-2.37-15.34.06-.1.12-.2.18-.31.17-.01.36-.04.61-.09.61-.04,1.21-.08,1.82-.12,2.01-.18,4.03-.47,5.97-1.03,1.7-.49,3.33-1.13,4.9-1.91.43,1.39.72,2.83.7,4.37-.22,14.63-2.58,29.17-6.29,43.29-1.05,4.01,1.32,8.01,5.24,9.23,8.05,2.5,15.06-1.74,19.06-8.18,1.11.4,2.3.6,3.49.56.56-.02,4.37-.17,2.18-.68,9.39,2.18,13.4-12.28,3.99-14.46ZM82.99,275.27c-2.37.76-4.62,1.62-6.65,2.49-.52.06-1.04.13-1.57.25-3.85.86-7.85,1.37-11.84,1.43-.78-.35-1.59-.68-2.45-.97-1.17-.4-2.34-.53-3.57-.69-.65-.09-1.27-.17-1.88-.24-.08-.83-.1-1.66-.11-2.61-.02-3.16.15-6.45.62-9.58.31-2.08.66-1.91,2.78-3.91.55-.52,1.1-1.04,1.66-1.57,1.84,4.25,5.39,7.55,10.2,8.84.12.03,2.88.53,4.86.62.07.01.13.02.2.03,1.06.54,2.26,1.04,3.31,1.33,2.17.6,4.37.61,6.47.19-.94,1.32-1.62,2.81-2.02,4.4ZM93.94,252.12l-.63.36c.54-1.24.75-1.37.63-.36ZM142.06,284.64c-3.02,0-4.63-2.2-4.81-4.54-.82-1-1.22-2.38-1.7-4.57-.24-1.08-.12.36-.2-1.57-.05-1.23-.09-2.46-.07-3.69.02-1.27.09-2.53.2-3.8,3.11-1.96,6.48-3.54,10.05-3.96.28-.03,1.01,0,1.75.04.11,1.89.59,3.76,1.43,5.43-1.06,3.02-1.82,6.11-2.32,9.3,1.39,2.96-.06,7.35-4.32,7.35Z"/>
    <path class="st1" d="M399.24,284.14c-1.85-3.08-3.99-5.93-6.35-8.58.22-.77.33-1.64.27-2.61-.62-10.21-4.1-19.68-10.42-27.75-3.5-4.47-9.56-10.62-15.99-13.57-.69.41-1.54.66-2.55.66-.08,0-.15-.01-.22-.01-.18.09-.35.19-.54.25-.6.31-1.24.46-1.93.43h-.67c-.76,0-1.48-.17-2.15-.5-.79.71-1.85,1.17-3.22,1.17-1.29,0-2.31-.4-3.08-1.04-.69.61-1.29,1.29-1.78,2.05-3.03-.32-6.08-.37-9.03-.16-7.84.56-11.69,5.87-10.82,13.52.87,7.68,5.28,13.33,13.42,13.77,4.93.27,8.98.14,13,2.21-2.74.46-5.43,1.15-8.03,2.05-.35.04-.7.11-1.05.2-1.15.16-2.31.52-3.42,1.02-.04.01-.08.03-.11.05-.04.02-.08.04-.11.05-.34.14-.66.3-.96.49-.37.2-.72.42-1.07.66-.49.16-.98.36-1.45.65-1.04.64-2.11,1.19-3.2,1.73-.16.06-.32.12-.48.18-.64.23-1.29.43-1.94.62-2.48.72-4.51,2.81-5.24,5.27-.36.33-.7.69-1.01,1.1-.99,1.29-1.65,2.41-2.3,3.9-.14.32-.26.64-.37.97-1.2-1.25-2.92-2.07-5.18-2.07-1.17,0-2.18.24-3.06.63-1.2-1.57-3.08-2.64-5.66-2.64-.24,0-.47.02-.7.03-1-.33-2.01-.67-3.01-1-1.1-2.14-3.21-3.73-6.35-3.73-2.6,0-4.5,1.1-5.7,2.69-1.59.69-2.91,1.93-3.7,3.82-.31.74-.49,1.57-.54,2.44-.01,0-.02-.01-.04-.02-2.12-.86-4.31-.9-6.55-.58-.17.02-.6.05-1.08.1-.35-1.84-1.37-4.62-1.52-5.57-.41-2.52-.58-5.1-.33-7.65.56-5.55,2.58-10.82,5.53-15.53.16,3.62,2.56,7.11,7.23,7.11,1.74,0,3.16-.49,4.27-1.29.89.39,1.93.62,3.11.62,9.65,0,9.67-15,0-15-1.74,0-3.16.49-4.27,1.29-.89-.39-1.93-.62-3.11-.62-.36,0-.7.03-1.03.07.27-.27.54-.55.81-.81.27-.26.51-.53.72-.8,2.75-.55,5.22-2.79,5.95-5.44,1.14-4.16-1.41-7.85-5.24-9.23-6.16-2.22-12.8-3.09-19.33-2.53-4.04.35-7.5,3.2-7.5,7.5,0,.28.02.56.06.84-1.63,1.94-2.92,4.12-3.98,6.42-.22-.02-.44-.03-.67-.03-8.33,0-9.48,11.18-3.41,14.23-1.63,8.39-2.7,16.94-3.29,25.45-.55,7.87-.61,17.09,8.23,20.09.11.22.21.45.33.67.69,1.3,1.57,2.39,2.55,3.34,1.08,1.5,2.74,2.51,4.64,3.02,5.7,2.45,13.01,2.26,18.77,1.5,4.86-.64,9.39-1.96,13.87-3.96,2.11-.94,4.16-2,6.09-3.27,1.33-.87,2.8-2.55,4.23-3.6,3.12.39,5.72-1.62,7.04-4.28,1.74-.85,2.89-2.35,3.47-4.08.11.1.22.21.34.31.14.54.3,1.07.48,1.6-.96,1.97-1.07,4.44.12,6.97,2.37,5.02,7.18,6.88,12.04,6.34,9.09,2.78,18.45,3.19,26.19-1.76.14.43.28.82.45,1.11,1.06,1.86,2.67,3.61,4.52,4.71,7.7,4.55,16.01-.93,22.42-5.09,3.96-2.57,7.52-5.31,7.85-10.42.26-3.9-1.27-7.39-3.24-10.68ZM352.1,285.67c-.39-.35-.81-.67-1.27-.94.96-.66,1.95-1.27,2.94-1.86,3.79-2.23,7.74-3.73,11.99-4.83.32-.08.62-.19.91-.31.28,1.38.5,2.82.71,4.3.16,1.14.37,2.26.63,3.37-5.05-1.34-10.61-.74-15.92.28Z"/>
    <path class="st1" d="M476.18,291.64c-2.4-4.15-4.12-8.64-4.67-13.44-.72-6.3-7.74-10.09-12.8-5.3-1.66,1.57-3.1,3.32-4.31,5.22-.21,0-.42.02-.64.05-10.35,1.2-20.74,1.85-31.16,1.97-.12,0-.24.02-.36.02.84-3.79-1.11-6.65-3.86-8.05,1.53-.13,3.1-.82,4.52-2.25,1.48-1.49,3.16-2.58,4.96-3.4,5.03,1.52,10.86,1.73,15.49,2.38,5.14.72,9.72.38,12.95-4.24,2.88-4.12,4.55-9.43,5.7-14.27.12-.52.18-1.02.22-1.51,1.62-3.17,1.18-7.15-2.98-9.14-8.86-4.24-18.1-3.24-27.41-1.08-2.54.59-5.13,1.67-7.41,3.15-1.47.64-2.79,1.72-3.78,3.11-.03.04-.05.07-.07.11-1.02,1.11-1.87,2.33-2.5,3.64-.9,1.37-1.76,2.77-2.6,4.18-1.14.25-2.28.78-3.35,1.68-6.89,5.76-10.75,14.66-10.8,23.6-.05,10.18,5.23,18.09,12.05,25.18,7.82,8.14,17.01,10.44,28.07,9.24,11.38-1.24,22.17-4.8,32.07-10.57,3.51-2.05,4.72-6.75,2.69-10.26Z"/>
    <path class="st1" d="M546.69,283.73c-1.47-1.35-3.47-2.12-5.45-2.15-2.92-2.62-6.47-4.63-10.25-5.68-3.45-2.23-8.39-1.99-10.31,1.98-.17.2-.32.41-.46.64-.15.03-.3.06-.45.1-4.15,1.1-8.31,2.2-12.46,3.31.01-.54.02-1.08.04-1.62,1.04-.88,1.83-2.18,2.19-3.95,1.29-6.48,3.02-12.84,5.3-19.04.6-1.62,1.24-3.22,1.92-4.8-.45,4.04,1.94,8.45,7.19,8.45,9.65,0,9.67-15,0-15-2.19,0-3.88.78-5.07,1.97.61-1.2,1.33-2.41,2-3.64,6.39-2.66,5.61-13.86-2.37-14.4-1.19-.83-2.51-1.56-3.85-2.21-5.1-2.47-10.47-3.55-15.11-.32-.55-.12-1.14-.19-1.78-.19-6.67,0-8.74,7.16-6.19,11.59-.65,1.44-1.27,2.89-1.9,4.29-.78-.28-1.66-.44-2.65-.44-8.17,0-9.43,10.74-3.77,14.04-.93,2.52-1.57,5.11-1.64,7.79-.09,3.2.57,6.28,1.57,9.29-2.05,4.02-2.38,7.92-1.48,11.51-.54,4.01-.43,8.05,1.76,11.68,1.84,3.06,4.97,5.1,8.39,5.79,1.7,1.49,3.65,2.76,5.94,3.74,9.11,3.93,18.83,2.18,28.15,0,1.22-.29,2.22-.78,3-1.42,1.8.46,3.75.28,5.5-.77,4.51-2.7,8.69-6.04,12.24-9.92,2.65-2.89,3.07-7.78,0-10.61ZM497.02,264.38c.19-1.88.84-3.74,1.91-6.01-.68,1.98-1.33,3.98-1.91,6.01Z"/>
  </g>
  <g id="_レイヤー_1" data-name="レイヤー_1">
    <g>
      <path class="st0" d="M41.91,306.14c-9.2-6.73-15.04-17.61-15.04-30.86,0-25.52,21.47-41.05,39.07-51.44,5.84,2.67,14.74,6.43,16.32,7.12,1.78.3,12.76,2.37,23.15,3.66l7.91,7.91c-2.97,5.24-5.54,12.66-8.41,22.55l3.96,3.76c2.47,10.49,9.1,21.47,19.39,31.65-14.64,9.89-34.33,20.77-55.3,20.77-13.06,0-24.24-5.74-31.06-15.13ZM114.52,292c-7.22-7.52-13.35-17.21-15.63-24.14-7.12,5.84-21.17,11.87-36.01,11.87-3.17,0-12.96-2.47-12.96-8.61,0-3.66,4.35-12.17,14.44-20.58l3.07,1.19c-.89,4.55-1.58,6.63-2.28,8.61-.49,1.58-.99,3.07-1.29,5.14,5.44.4,17.21,2.77,26.02,2.87,2.08-7.91,6.92-24.33,9.69-30.76-5.44-.69-13.75-2.18-18.4-3.07-4.15-1.78-11.18-4.75-15.04-6.53-16.42,9.79-35.51,24.33-35.51,47.29,0,20.28,14.74,34.33,34.43,34.33s37.39-9.59,49.46-17.61ZM67.82,275.77l-3.86-3.86c-.4,1.29-1.19,2.27-1.48,4.06h.4l4.95-.2Z"/>
      <path class="st0" d="M120.94,304.26c-2.97-3.76-6.83-7.12-9.2-11.87-2.87-5.84-4.06-12.37-4.06-18.79,0-11.97,4.25-23.44,10.98-29.08,8.9-7.52,18.4-11.67,27.5-11.67,8.11,0,15.93,3.26,22.75,10.39,2.57,2.67,5.34,5.14,7.91,7.91,7.81,8.11,11.57,17.9,11.57,28.69,0,4.25-.49,8.7-1.68,13.26-3.26,12.76-14.94,23.94-28.09,24.93-1.29.1-2.67.2-4.06.2-10.98,0-25.13-3.36-33.63-13.95ZM150.42,306.44c11.38-.89,21.96-10.78,24.83-22.16,1.09-4.25,1.68-8.41,1.68-12.37,0-9.99-3.56-18.8-10.68-26.12-6.03-6.23-12.86-9.2-20.18-9.2-8.11,0-16.62,3.66-25.03,10.68-5.64,4.85-9.69,15.33-9.69,26.41,0,5.84,1.19,11.77,3.76,17.11,5.84,11.97,20.28,15.73,31.66,15.73,1.29,0,2.47,0,3.66-.1ZM137.66,288.14c-5.74-3.66-7.12-11.67-7.12-18,0-2.97.3-5.64.59-7.32.69-4.06,2.67-9.5,7.81-9.5.4,0,.89,0,1.38.1,2.18.4,5.54,4.06,6.63,7.42.69,2.08,1.68,5.94,1.68,11.18,0,3.56-.49,7.81-1.78,12.56-.79,3.07-3.17,4.65-5.64,4.65-1.19,0-2.47-.4-3.56-1.09ZM144.88,273.4c0-2.47-.2-4.95-.49-7.12-.99,1.19-1.39,3.26-1.68,5.04-.3,1.78-.69,4.55-.69,7.52,0,1.98.2,3.96.59,5.94,1.58-1.78,2.28-6.53,2.28-11.38Z"/>
      <path class="st0" d="M213.83,316.63c-6.73,2.97-13.35,5.54-19.29,7.12l-8.01-8.01c-5.64-14.34-8.8-22.26-10.19-38.08-.2-2.57-.4-5.84-.4-9.3,0-10.98,1.19-25.03,2.97-33.93l32.15,6.03,4.65,4.75c3.36-2.27,11.08-5.94,18.89-6.92.99-.1,1.88-.2,2.87-.2,6.43,0,12.17,2.97,17.21,8.71,3.86,4.55,8.51,8.01,8.51,18.1,0,12.17-4.25,25.72-5.84,38.28,2.18,1.68,5.64,4.55,7.02,6.03,1.09,1.29,1.29,3.76,1.29,6.03l-.1,3.46c-4.55.99-28.59,7.52-44.81,9.4l-7.81-7.72.89-3.76ZM253.99,307.82c0-.79.4-4.35-1.38-3.96-1.09.2-2.08.3-2.97.3-3.46,0-4.55-1.88-4.25-5.74.49-5.94,2.08-13.75,3.46-21.37,1.39-7.62,2.67-14.84,2.67-20.08,0-11.67-6.13-15.23-13.26-15.23-.99,0-2.08.1-3.17.2-10.09,1.29-21.17,7.62-31.26,15.43,1.29-7.02,2.18-10.39,2.87-13.95l-24.83-4.65c-1.29,7.12-2.18,19.69-2.18,29.78,0,3.26.1,6.33.3,8.8.69,8.71,2.08,14.94,3.66,20.28,1.48,4.95,3.26,9.1,5.04,13.65,7.32-2.08,17.71-6.43,25.82-10.98-5.34-9-10.29-19.49-10.68-30.77,3.46-4.35,7.02-9.79,13.16-9.79,4.45,0,5.64,13.85,5.64,22.36,0,1.38,0,2.67-.1,3.66-.79,12.96-1.88,19.59-4.65,30.07,11.77-1.68,31.06-6.83,36.11-8.01ZM218.87,285.57c.2-2.77.59-7.42.79-11.67-1.58,1.38-2.97,3.26-4.15,4.75.3,4.35,1.39,8.71,2.87,12.96l.49-6.03Z"/>
      <path class="st0" d="M290.88,319.59c-12.17-1.98-17.31-5.24-23.54-11.28-4.65-4.55-8.31-8.9-10.68-17.91-.79-3.07-1.09-6.83-1.09-10.78,0-6.63.89-13.65,1.78-18.1l-5.74-5.94,6.92-16.22,5.34.59c1.98-4.95,4.25-9.99,7.32-15.53,9.4.4,27.2,2.97,36.9,5.44l7.91,7.91c-2.37,2.77-4.85,5.44-7.12,8.31l2.97.79,7.91,7.91c-3.17,5.14-5.24,10.19-6.43,13.45-6.83-1.48-11.08-2.47-15.14-3.17-1.09,2.57-2.77,6.83-4.06,11.38,1.88-2.18,3.36-4.25,4.25-5.24,6.03,1.58,20.67,7.91,30.07,12.17l7.81,7.72c-.99,2.37-4.15,10.19-12.37,18.4-6.33,6.33-16.92,10.49-27.4,10.49-1.88,0-3.76-.1-5.64-.4ZM313.34,298.92c5.93-5.93,9.1-11.57,10.19-13.85-4.06-1.78-17.71-7.81-23.84-9.69-3.07,3.96-9.3,12.27-15.04,12.27-3.66,0-4.55-2.97-4.55-6.03,0-1.88.4-3.86.59-5.14,1.78-10.09,4.35-16.82,7.42-23.44,5.34.89,9.6,1.78,14.94,2.97.69-1.58,1.88-4.45,3.07-6.73-5.04-1.19-9.1-2.18-14.74-3.17,2.47-5.34,6.23-9.6,9.99-14.05-6.73-1.48-20.77-3.36-28.09-3.76-2.28,4.35-4.65,9.69-6.92,15.63l-5.44-.59-3.56,8.31,6.23-.1c-1.39,4.35-1.98,6.43-2.18,7.62-1.09,6.23-2.08,14.34-2.08,21.27,0,3.46.2,6.53.89,9,3.46,13.16,8.21,16.22,23.35,18.6,1.68.3,3.46.4,5.14.4,9.5,0,18.99-3.86,24.63-9.5Z"/>
      <path class="st0" d="M356.17,318.41c-11.97,0-19.98-5.04-23.74-11.77-7.02-4.06-10.58-10.88-10.58-18,0-8.51,5.14-17.31,15.73-22.26-2.87-6.13-10.39-18.5-11.47-24.24,6.63-5.44,20.77-10.68,33.44-10.68,4.65,0,9.1.69,12.86,2.37,5.24,2.28,8.8,6.33,12.96,9.89,9,7.81,13.75,19.39,16.92,33.44,2.77,12.46,7.12,19.09,13.65,27.9-8.51,8.11-21.47,13.65-32.84,15.83l-6.83-6.63c-5.24,1.78-13.25,4.16-20.08,4.16ZM403.06,296.65c-5.04-6.92-9.5-13.95-12.27-26.61-3.56-16.03-8.61-27.9-19.88-32.84-3.26-1.38-7.22-1.98-11.38-1.98-11.18,0-23.74,4.25-29.38,8.41.69,1.68,2.47,5.24,4.45,9.1l4.65,8.61c3.17-2.37,7.62-4.75,14.05-4.75,4.35,0,8.11,2.97,9.3,7.52-7.52.3-15.43,2.37-21.27,4.65-7.32,2.97-15.83,9.69-15.83,19.69,0,6.23,4.25,18.4,22.75,18.4,10.49,0,24.14-6.03,25.13-6.53,1.58,2.77,2.37,5.74,3.76,8.51,8.61-1.88,19.69-6.63,25.92-12.17ZM345.88,280.13c-.2-4.06,3.36-6.13,6.83-7.32,3.46-1.09,7.72-1.58,11.97-2.47.49,2.97,1.09,5.14,1.78,7.22.59,2.08,1.38,4.25,2.37,7.12-2.28.89-5.94,1.38-9.6,1.38-6.53,0-13.25-1.68-13.35-5.94Z"/>
      <path class="st0" d="M410.47,307.13c-7.42-7.42-13.16-16.22-13.16-28.49,0-23.35,25.92-42.04,47.38-42.04,5.04,0,14.44.49,22.26,2.27l7.91,7.91c-3.96,7.02-7.72,13.16-10.09,19.98l7.52,6.83c2.37,9.69,8.21,19.29,17.71,28.59-13.45,9.1-31.16,18.89-50.15,18.89-12.07,0-21.86-6.33-29.38-13.95ZM476.26,293.78c-6.43-6.73-11.77-15.33-13.95-21.47-5.74,5.14-14.34,10.98-27.8,10.98-2.97,0-18.5-1.68-17.51-8.01,1.38-8.21,10.49-10.78,18.6-10.78,2.28,0,4.55.2,6.53.59,3.76.69,5.14,1.19,8.41,2.97.4-4.35,2.08-9.2,4.15-13.85s4.55-9.1,6.53-12.76c-4.55-.69-12.07-1.09-16.52-1.09-20.08,0-43.62,17.61-43.62,38.28,0,18.2,13.26,30.76,30.86,30.76s33.53-8.51,44.32-15.63ZM434.51,279.63c5.64,0,10.29-1.09,14.54-3.07-1.88-.3-3.86-.49-5.64-.49-5.14,0-9.79,1.19-12.56,3.66l3.66-.1Z"/>
      <path class="st0" d="M514.04,319.59c-12.17-1.98-17.31-5.24-23.54-11.28-4.65-4.55-8.31-8.9-10.68-17.91-.79-3.07-1.09-6.83-1.09-10.78,0-6.63.89-13.65,1.78-18.1l-5.74-5.94,6.92-16.22,5.34.59c1.98-4.95,4.25-9.99,7.32-15.53,9.4.4,27.2,2.97,36.9,5.44l7.91,7.91c-2.37,2.77-4.85,5.44-7.12,8.31l2.97.79,7.91,7.91c-3.17,5.14-5.24,10.19-6.43,13.45-6.83-1.48-11.08-2.47-15.13-3.17-1.09,2.57-2.77,6.83-4.06,11.38,1.88-2.18,3.36-4.25,4.25-5.24,6.03,1.58,20.67,7.91,30.07,12.17l7.81,7.72c-.99,2.37-4.15,10.19-12.37,18.4-6.33,6.33-16.92,10.49-27.4,10.49-1.88,0-3.76-.1-5.64-.4ZM536.5,298.92c5.94-5.93,9.1-11.57,10.19-13.85-4.06-1.78-17.71-7.81-23.84-9.69-3.07,3.96-9.3,12.27-15.04,12.27-3.66,0-4.55-2.97-4.55-6.03,0-1.88.4-3.86.59-5.14,1.78-10.09,4.35-16.82,7.42-23.44,5.34.89,9.6,1.78,14.94,2.97.69-1.58,1.88-4.45,3.07-6.73-5.04-1.19-9.1-2.18-14.74-3.17,2.47-5.34,6.23-9.6,9.99-14.05-6.73-1.48-20.77-3.36-28.09-3.76-2.28,4.35-4.65,9.69-6.92,15.63l-5.44-.59-3.56,8.31,6.23-.1c-1.38,4.35-1.98,6.43-2.18,7.62-1.09,6.23-2.08,14.34-2.08,21.27,0,3.46.2,6.53.89,9,3.46,13.16,8.21,16.22,23.35,18.6,1.68.3,3.46.4,5.14.4,9.5,0,18.99-3.86,24.63-9.5Z"/>
    </g>
  </g>
</svg>