<?xml version="1.0" encoding="UTF-8"?>
<svg xmlns="http://www.w3.org/2000/svg" version="1.1" viewBox="0 0 566.93 566.93">
  <!-- Generator: Adobe Illustrator 30.2.1, SVG Export Plug-In . SVG Version: 2.1.1 Build 1)  -->
  <defs>
    <style>
      .st0 {
        fill: #231815;
      }

      .st1 {
        fill: #d77caf;
      }
    </style>
  </defs>
  <g id="_レイヤー_2" data-name="レイヤー_2">
    <path class="st1" d="M350.3,298.78c-.45.05-.89.13-1.32.21,0-.01,0-.02,0-.03.78-.12-3.04-8.22-3.42-9.21-.99-2.63-1.83-5.32-2.54-8.03-1.7-6.44-2.68-13.02-3.21-19.65-.49-6.21-.63-12.44-.64-18.67,2.87.77,6.24-.72,6.11-4.61-.14-4.66-.29-9.31-.43-13.97,1.72.01,3.45.03,5.17.06,4.75.09,7.1-7.14,2.52-9.32-8.35-3.98-18.94-5.36-28.07-6.5-3.8-.47-8.87-.78-12.01,1.91-3.12,2.67-3.13,7.71-3.57,11.48,0,.02,0,.04,0,.06-.42,1.19-.76,2.4-1.09,3.49-2.36,7.65-3.64,16.16-2.8,24.15.42,3.95,1.74,7.74,2.14,11.68.45,4.42-.11,8.94-.23,13.36-.19,7.18.06,14.39,1.25,21.49-1.77-.01-3.54.02-5.31.12-.1-.37-.23-.73-.38-1.1-.23-.55-.55-1-.92-1.35-4-8.7-6.76-17.88-8.73-27.28-1.12-5.35-2.01-10.75-2.72-16.16-.05-.4-.1-.8-.15-1.2,1.95-3.7,4-7.34,6.2-10.92,1.84-3-.1-6.2-2.99-7.34-3.03-1.2-6.64-1.53-9.49-.39-.4-.56-.87-1.01-1.39-1.39.06-.02.12-.03.18-.05,2.27-.76,4.35-1.98,6.1-3.54.37.08.76.13,1.18.13,5.2-.07,11.11-2.2,11.53-8.26.41-5.71-5.11-8.81-9.03-11.87-1.12-.88-2.35-1.2-3.53-1.14-1.04-.33-2.12-.55-3.24-.68-.89-.33-1.83-.58-2.78-.74-3.07-.51-7.6-.82-10.14,1.44-.18.02-.36.03-.54.04-8.24.82-15.89,7.18-10.59,15.66,2.03,3.25,5.03,5.99,8.46,7.72-.43.3-.82.65-1.14,1.08-1.57.45-2.99.95-4.13,1.36-.16.06-.31.12-.46.18-2.81-.79-6.6.74-7,4.57-.39,3.82-.46,7.58-.28,11.3-.98.83-1.63,2.04-1.57,3.6.15,4.17.32,8.37.64,12.55-1.22-1.54-2.7-2.91-4.29-4.08-6.67-4.92-15.14-6.02-23.42-6.09,1.25-1.02,2.47-2.08,3.6-3.23,1.98-2.03,4.38-7,7.53-6.81,5.71.35,6.67-8.34,1.33-9.82-5.31-1.47-12.48-4.29-19.44-5.47-.08-.18-.18-.35-.3-.51-.94-1.26-1.84-2.29-3.23-3.09-1.41-.81-2.78-1.1-4.37-1.26-1.2-.12-2.72.65-3.54,1.46-.3.3-.58.68-.81,1.09-1.65.67-2.86,2.08-2.71,4-.52.31-1.03.66-1.52,1.06-.48-.56-1.03-1.11-1.68-1.69-1.02-.91-2.07-1.94-3.17-2.87,2.99-1.79,4.78-4.97,2.35-8.66-3.32-5.04-11.47-2.78-16.1-1.24-1.97.65-4.43,1.47-6.89,2.5-2.72.16-5.45.32-8.15.61-7.34.77-7.75,6.28-8.41,12.55-1.64,15.52-2.43,31.26,2.18,46.38.16.52.4.96.67,1.36-.76,3.63-1.32,7.29-1.69,10.98-.39-2.16-1.8-3.24-3.43-3.46,1.91-15.48-15.76-22.43-28.3-24.78-1.13-.21-2.15-.08-3.02.29-1.89-3.15-6.41-3.64-8.48-.15-3.35-.67-6.8-.86-10.19-.58-1.45-.77-2.95-1.48-4.5-2.11-1.89-.77-4.1-1.27-6.31-1.8,1.36-.41,2.47-1.44,3.13-2.69,7.15-.56,14.26-1.42,21.34-2.57.24,1.26.65,2.5,1.27,3.76,2.07,4.18,7.79,2.51,9.14-1.19,2.1-5.76,6.13-10.1,11.47-13.01,2.15-1.17,2.9-3.89,2.16-6.06,1.69-2.95.32-7.71-4.13-7.71-.32,0-.62.03-.91.08-.29-.05-.58-.08-.9-.08-.11,0-.21,0-.31.02-.73-.66-1.71-1.1-2.95-1.15-.88-.91-2.12-1.53-3.57-1.63-3.53-.24-7.06-.28-10.58-.12-3.27-.86-6.72-1.28-9.73-1.64-6.65-.8-13.16-.48-19.76.55-2.71.42-3.77,2.66-3.55,4.9-1.87.66-3.66,1.49-5.16,2.57-2.1.11-3.85,1.61-4.58,3.67,0,0,0,.01,0,.02-5.97,4.38-9.19,11.15-10.33,18.8-1.37,9.16-1.8,17.96,8.28,21.66,9.11,3.35,19.54,4.23,29.37,3.72-2.26,1.81-4.25,4.46-6.05,7.12-1.95-2.53-6.21-2.7-8.29.44-4.81,7.24-7.08,15.64-6.58,24.31.17,3,2.81,5.01,5.38,4.96.54.5,1.2.87,1.99,1.02,1.16.22,2.31.4,3.47.58,3.37,3.02,8.8,4.06,13.4,3.08,1.92-.41,3.81-1.05,5.68-1.84,15.3-.36,30.35-3.97,44.41-10.78.39-.19.71-.42,1-.67.1,1.21.22,2.42.37,3.62.16,1.24.39,2.47.73,3.63.19-.02.38-.03.58-.03,3.95,0,5.47,3.76,4.58,6.67.35.17.72.33,1.11.47,5,1.74,9.44-.65,13.67-3.12,5.32-3.1,10.84-1.95,16.57-3.17,5.75-1.22,6.1-5.82,5.16-10.73-1.8-9.43-3.72-18.85-5.65-28.26,2.45-1.97,5.16-3.52,8.03-4.65.48.41,1.04.73,1.67.95.79,1.02,1.52,2.05,2.17,3.1.92,4.16,1.82,8.33,2.7,12.5-2.15,7.8-4.11,15.65-5.82,23.57-1.07,4.97-2.09,9.97-2.94,14.99-.55,3.25-1.2,6.42,1.4,8.99,5.25,5.19,15.66-1.27,21.1-3.28,4.79-1.77,9.6-3.45,14.49-4.84,1.86.53,3.95.16,5.16-1.34,2.51-.58,5.05-1.08,7.62-1.44,1.8-.25,2.84-1.17,3.31-2.35,5.18-1.18,4.78-9.86-1.22-9.86-2,0-3.38.97-4.14,2.31-1-.12-2-.23-3-.34.69-4.52,1.27-9.05,1.72-13.6,1.14-4.77,2.41-9.52,3.52-14.3.56-2.42,1.22-4.98,1.72-7.57.81,3.41,1.84,6.77,3.19,10.05,2.28,5.53,4.69,10.82,6.51,16.53,1.75,5.49,3.86,10.78,8.33,14.62,3.15,2.7,7.34,1.09,8.28-2.29.82.46,1.76.75,2.85.8,7.53.33,16.17-5.75,21.55-10.39.68-.59,1.11-1.36,1.31-2.21.04,0,.08,0,.12,0,1.44,4.63,3.51,9.22,6.5,12.42,4.81,5.13,14.71,4.23,20.95,2.9,3.24-.69,5.98-2.27,7.54-5.25,1.44-2.74.71-7.55,4.81-8.02,0-.02,0-.04,0-.05.43-.02.88-.05,1.34-.13,5.51-.86,4.28-10.46-1.33-9.82ZM163.4,300.28c-.3-.29-.62-.54-.97-.74.41-.72.74-1.48,1-2.27-.03,1-.04,2-.03,3.01ZM196.66,244.91c-.58-3.26-1.16-6.52-1.74-9.77.02-.13.04-.25.06-.38.88.58,1.86,1.12,2.21,1.94.77,1.81,0,5.45-.54,8.21Z"/>
    <path class="st1" d="M486.56,282.97c-1.84-3.63-4.6-7.2-7.92-10.25-.67-1-1.42-1.96-2.26-2.85-4.38-4.68-11.67-5.83-17.61-7.28-2.62-.64-5.26-1.2-7.91-1.72.44-.36.83-.8,1.14-1.36.45-.8.86-1.69,1.22-2.64.36.06.72.08,1.09.07,2.25,2.76,7.28,2.41,8.71-1.74,1.93-5.58,11.69-28.32-.84-28.24-1.1,0-2.16.29-3.16.76-.89-1.03-2.22-1.7-3.78-1.82-2.58-.2-5.16-.41-7.75-.61-7.73-2.47-15.92-3.15-24.05-1.9l-5.51-.43c-.27,2.25-1.86,4.32-4.78,4.32-3.36,0-4.96-2.71-4.82-5.31-1.89-.2-3.81-.31-5.63-.12.58-2.34-.35-4.96-3.42-5.73-.59-.15-1.19-.28-1.8-.39-5.74-1.25-11.49-2.69-17.29-3.54-2.53-.37-4.95-.41-7.21.11-.5-.22-.99-.45-1.47-.71-1.22-.66-2.46-.78-3.57-.52-.84-4.82-9.26-4.28-9.97,1.49-.7,5.67-1.14,11.38-1.49,17.11-1.47.39-2.78,1.43-3.4,3.27-3.41,10.21-3.34,22.7-3.02,33.37.33,10.87,2.35,21.39,7.14,31.2.04.08.08.15.12.22.78,8.84,2.71,20.79,12.15,22.73,1.31,1.27,2.74,2.44,4.3,3.5,3.79,2.58,7.21-.99,7.27-4.61,5.22-1.84,9.9-5.24,14.19-8.95.64-.14,1.26-.28,1.83-.43,2.73-.69,3.99-3.83,3.43-6.35.08-1.41-.36-2.85-1.43-3.74-2.22-1.84-4.22-3.83-6.01-5.96-1.19-3.78-2.37-7.57-3.55-11.35l-5.36-17.12c2.1-5.71,3.36-11.64,3.7-17.72.29-5.2-2.21-13.46,2.02-17.43,1.86-1.74,1.88-3.88.94-5.58,1.1.13,2.21.29,3.31.49l1.46.31c-1.94,2.45-2.77,5.76-2.8,8.86-.06,5.78,2.08,10.55,5.79,13.41,0,.01-.01.02-.01.04-1.22,3.53-2.07,7.28-1.77,10.81-1.91,1.35-2.93,3.86-1.38,6.4,2.43,4,5.61,6.7,9.22,8.46,5.08,3.93,10.72,6.89,17.14,6.61-.76.58-1.39,1.44-1.73,2.62-2.05,7.21-4.22,14.4-6.15,21.65-1.32,4.96-.82,11.15,5.4,12.09,1.38.21,2.65.08,3.81-.3.03.07.05.15.07.23.74,2.06,2.9,3.5,5,3.63.3,2.4,1.19,4.51,3.37,5.69,4.4,2.39,10.38.09,13.81-2.98,1.33-1.2,2.4-2.57,3.31-4.03.58.72,1.19,1.42,1.85,2.11,3.32,3.43,8.03.48,8.54-3.54.09-.73.16-1.46.21-2.19,2.66.83,5.37,1.38,7.7,1.36,5.19-.06,7.67-4.09,9.46-8.29,11.63-1.41,15.1-15.45,10.16-25.2ZM402.69,233.6c.04-.38.12-.72.28-.96.31-.46.69-.68,1.12-.76-.52.55-.99,1.12-1.4,1.73ZM420.77,254.98c-.46.05-.88.09-1.29.12,1.62-.25,3.27-.44,4.91-.6-1.2.19-2.41.35-3.62.49ZM436.77,284.11c-.57,0-1.13.09-1.66.29-.19,0-.37.01-.56.03-1.1-1.64-3.15-2.35-5.09-2-.59-1.46-1.78-2.47-3.14-2.94,4.13-.79,8.19-1.72,12.34-2.34.1.25.21.5.31.75-1.93,1.12-2.86,3.87-2.2,6.21Z"/>
  </g>
  <g id="_レイヤー_1" data-name="レイヤー_1">
    <g>
      <path class="st0" d="M93.81,323.52l-9.28-9.71,6.11-24.2c-4.81-2.33-6.46-5.82-10.22-8.67-7.16-5.31-10.8-13.85-10.8-22.78,0-18.25,15.03-38.44,44.62-38.44,1.17,0,2.47,0,3.76.13,13.97.78,23.37,4.4,32.65,9.84l9.51,10.35-10.8,22.91c4.93,2.33,9.51,6.08,13.5,10.74,3.76,4.27,7.16,8.28,9.28,14.75,1.17,3.49,1.76,6.99,1.76,10.22,0,19.67-20.32,33.26-38.17,33.26s-28.54-1.42-41.92-8.41ZM160.04,287.93c0-2.59-.47-5.31-1.41-8.15-3.76-11.39-14.33-15.27-26.19-15.66-3.17-.13-11.16.78-18.55.78-6.81,0-13.04-.65-14.44-3.36-.59-1.17-.94-2.33-.94-3.24,0-4.79,6.81-6.99,12.8-6.99,10.45,0,15.74,1.55,21.96,5.05l11.51-24.59c-6.58-3.62-15.97-7.25-30.18-7.25-24.54,0-40.51,15.66-40.51,34.82,0,1.94.12,3.88.47,5.82,1.29,7.77,11.16,12.68,21.84,11.78,3.64-.39,13.03-1.68,21.14-1.68,6.34,0,11.98.78,13.62,3.49.82,1.17,1.17,2.46,1.17,3.75,0,4.53-5.05,8.67-10.92,8.02-8.46-.78-17.03-1.68-25.13-5.05l-6.58,25.11c9.75,4.92,19.85,6.21,36.64,6.21s33.7-12.68,33.7-28.86Z"/>
      <path class="st0" d="M206.78,327.01c-8.69,3.75-15.38,7.25-25.95,11.52l-9.39-10.35c-4.93-13.72-8.81-25.5-10.33-38.44-1.76-15.01-2.94-26.53-2.94-38.05,0-10.61,1.06-21.35,3.52-34.82,13.39-1.94,20.43-3.75,40.28-7.38l9.39,10.35v.13l41.92,14.5,9.39,10.22c-3.05,1.94-8.92,5.95-14.09,10.35,4.81,2.46,6.81,5.44,9.63,8.41,7.75,7.89,9.63,15.01,9.04,26.66-.23,5.95-2.23,17.6-3.88,27.7l4.81,4.14c2.7,2.33,5.4,7.51,4.81,14.5-7.52,2.72-30.77,9.19-60.24,14.5l-9.39-10.35,3.41-13.59ZM259.51,322.48c.12-.91.23-1.94.23-2.85,0-1.29-.23-2.33-1.06-2.33-3.88.13-9.63-.78-9.63-6.47,0-.39,0-1.04.12-1.55,1.64-10.22,3.99-23.56,4.23-29.77l.23-6.08c0-8.28-1.76-12.55-10.69-15.53-1.64-.52-4.34-.91-7.52-.91-3.76,0-8.46.52-13.39,1.81,6.93-12.81,15.74-19.8,20.2-23.04l-30.88-10.61c-2.35,3.62-5.52,8.54-8.34,13.85-3.17,5.69-5.99,11.65-9.16,24.85-.59-5.44-.82-11.13-.82-16.95,0-11.26,1.06-22.52,2.94-31.45-13.5,2.59-20.43,4.27-30.65,5.82-1.76,10.35-2.82,22.13-2.82,30.16,0,14.5,1.29,22.65,2.94,37.66,1.41,11.78,4.81,22.65,8.46,32.87,12.21-5.05,19.61-9.45,32.88-14.37-4.81-7.25-8.57-20.19-9.98-27.96,5.28-5.69,7.99-9.97,16.21-9.19,4.35.52,6.11,5.69,6.11,12.42,0,6.08-1.29,13.33-1.88,16.95-2,11.78-4.81,21.48-7.99,34.82,22.78-4.27,43.57-9.97,50.26-12.17ZM214.53,287.93c-1.17,1.04-2.23,2.2-3.52,3.62.35,1.68,1.06,4.27,2,7.51.7-3.88,1.17-7.64,1.53-11.13Z"/>
      <path class="st0" d="M275.48,322.48c-9.04-9.45-12.21-15.79-16.44-27.57-4.23-11.65-5.75-23.56-5.75-35.46,0-10.61,1.17-21.36,2.94-32.23,3.29.52,7.16.91,11.51,1.17v-.13c-6.46-3.11-9.98-8.41-9.98-13.98,0-9.06,10.8-14.75,24.07-14.75,12.21,0,17.85,6.6,22.43,11.91,4.7,5.69,8.92,9.19,8.92,14.75,0,3.36-2.94,7.51-5.05,9.71l1.17,1.29.23,10.87c-.23,7.64-7.63,3.62-8.34,11.39l-.23,5.56c0,22.78,12.56,37.66,25.01,50.86-9.86,4.14-15.27,7.12-20.79,9.84-4.11,1.94-13.62,5.05-19.73,6.86l-9.98-10.1ZM294.03,310.96c4.93-2.46,9.63-5.05,14.56-7.25-9.28-10.09-21.37-25.5-21.37-48.92,0-2.07,0-4.14.24-6.21.82-9.45,8.34-8.02,8.22-11.52,0-1.29-.12-2.85-.23-4.4-4.93.78-10.69,1.16-16.21,1.16-7.52,0-14.56-.52-19.38-1.16-.7,4.14-2.23,16.31-2.23,26.66,0,11.52,1.17,21.87,5.52,33.78,3.52,9.84,6.34,16.96,14.09,23.94,5.99-1.29,11.39-3.5,16.79-6.08ZM299.44,215.84c0-4.53-4.58-11.39-17.61-11.39s-19.61,5.69-19.61,9.84c0,4.66,5.4,12.3,19.73,12.3,11.86,0,17.5-6.47,17.5-10.74ZM309.54,247.68v.39-.39Z"/>
      <path class="st0" d="M303.08,256.35c0-18.77.94-26.53,5.99-50.99,23.49,2.46,42.04,5.82,49.09,8.93l9.39,10.48v3.88c0,6.21-2.82,9.84-7.63,9.84-.82,0-1.76-.13-2.82-.39-4.58-1.04-7.16,7.38-7.16,23.04l.23,7.38c.94,18.38,3.88,26.53,17.15,47.63-11.86,8.41-23.96,14.62-39.57,20.06l-9.28-10.09c-11.04-19.41-15.38-39.34-15.38-69.76ZM351.69,304.36c-11.16-17.99-14.33-27.44-15.27-45.95-.7-17.08,5.05-35.46,11.16-35.46.35,0,.82,0,1.17.13.7.13,1.17.26,1.76.26,2.35,0,3.29-1.68,3.29-5.69-5.52-2.2-21.14-4.92-41.1-7.12-4.34,17.99-5.28,26.27-5.28,45.69,0,28.09,3.99,47.76,13.03,64.06,11.04-3.88,21.96-9.45,31.24-15.92Z"/>
      <path class="st0" d="M350.28,256.35c0-18.77.94-26.53,5.99-50.99,23.49,2.46,42.04,5.82,49.09,8.93l9.39,10.48v3.88c0,6.21-2.82,9.84-7.63,9.84-.82,0-1.76-.13-2.82-.39-4.58-1.04-7.16,7.38-7.16,23.04l.23,7.38c.94,18.38,3.88,26.53,17.15,47.63-11.86,8.41-23.96,14.62-39.57,20.06l-9.28-10.09c-11.04-19.41-15.38-39.34-15.38-69.76ZM398.9,304.36c-11.16-17.99-14.33-27.44-15.27-45.95-.7-17.08,5.05-35.46,11.16-35.46.35,0,.82,0,1.17.13.7.13,1.17.26,1.76.26,2.35,0,3.29-1.68,3.29-5.69-5.52-2.2-21.14-4.92-41.1-7.12-4.34,17.99-5.28,26.27-5.28,45.69,0,28.09,3.99,47.76,13.03,64.06,11.04-3.88,21.96-9.45,31.24-15.92Z"/>
      <path class="st0" d="M417.22,323.52l-9.28-9.71,6.11-24.2c-4.82-2.33-6.46-5.82-10.22-8.67-7.16-5.31-10.8-13.85-10.8-22.78,0-18.25,15.03-38.44,44.62-38.44,1.17,0,2.47,0,3.76.13,13.97.78,23.37,4.4,32.65,9.84l9.51,10.35-10.8,22.91c4.93,2.33,9.51,6.08,13.5,10.74,3.76,4.27,7.16,8.28,9.28,14.75,1.17,3.49,1.76,6.99,1.76,10.22,0,19.67-20.32,33.26-38.17,33.26s-28.54-1.42-41.92-8.41ZM483.45,287.93c0-2.59-.47-5.31-1.41-8.15-3.76-11.39-14.33-15.27-26.19-15.66-3.17-.13-11.16.78-18.55.78-6.81,0-13.04-.65-14.44-3.36-.59-1.17-.94-2.33-.94-3.24,0-4.79,6.81-6.99,12.8-6.99,10.45,0,15.74,1.55,21.96,5.05l11.51-24.59c-6.58-3.62-15.97-7.25-30.18-7.25-24.54,0-40.51,15.66-40.51,34.82,0,1.94.12,3.88.47,5.82,1.29,7.77,11.16,12.68,21.84,11.78,3.64-.39,13.04-1.68,21.14-1.68,6.34,0,11.98.78,13.62,3.49.82,1.17,1.17,2.46,1.17,3.75,0,4.53-5.05,8.67-10.92,8.02-8.46-.78-17.03-1.68-25.13-5.05l-6.58,25.11c9.75,4.92,19.85,6.21,36.64,6.21s33.7-12.68,33.7-28.86Z"/>
    </g>
  </g>
</svg>