<?xml version="1.0" encoding="UTF-8"?>
<svg xmlns="http://www.w3.org/2000/svg" version="1.1" viewBox="0 0 566.93 566.93">
  <!-- Generator: Adobe Illustrator 30.2.1, SVG Export Plug-In . SVG Version: 2.1.1 Build 1)  -->
  <defs>
    <style>
      .st0 {
        fill: #231815;
      }

      .st1 {
        fill: #00a0e9;
      }

      .st2 {
        fill: #df2514;
      }
    </style>
  </defs>
  <g id="_レイヤー_2" data-name="レイヤー_2">
    <polygon class="st1" points="100.84 245.83 52.55 226.49 52.15 163.25 93.94 155.22 100.84 245.83"/>
    <rect class="st1" x="50.9" y="177.19" width="9.03" height="23.33"/>
    <polygon class="st1" points="92.46 213.37 52.55 213.37 65.46 259.43 105.05 251.32 92.46 213.37"/>
    <rect class="st1" x="94.77" y="171.4" width="25.74" height="74.43"/>
    <rect class="st1" x="110.9" y="197.84" width="72.15" height="51.2"/>
    <rect class="st1" x="139.4" y="232.4" width="33.2" height="33.2"/>
    <rect class="st1" x="128.44" y="241.83" width="21.17" height="12.13"/>
    <rect class="st1" x="134" y="253.97" width="5.39" height="9.03"/>
    <rect class="st1" x="116.34" y="173.32" width="15.16" height="27.91" transform="translate(-77.04 87.05) rotate(-30)"/>
    <rect class="st1" x="130.9" y="153.13" width="52.15" height="55.49"/>
    <rect class="st1" x="136.7" y="146.12" width="43.88" height="7.97"/>
    <rect class="st1" x="185.1" y="159.31" width="43.21" height="103.18"/>
    <polygon class="st1" points="224.02 171.4 194.77 171.4 194.77 150.1 224.02 155.22 224.02 171.4"/>
    <polygon class="st1" points="233.86 273.34 287.21 271.82 287.21 211.85 219.67 211.85 233.86 273.34"/>
    <ellipse class="st1" cx="255.61" cy="198.13" rx="31.59" ry="20.94"/>
    <rect class="st1" x="289.73" y="182.53" width="24.42" height="53.87"/>
    <rect class="st1" x="314.13" y="228.82" width="61.8" height="29.66"/>
    <polygon class="st1" points="314.15 182.53 292.29 234.87 302.34 251.67 326.67 256.83 314.15 182.53"/>
    <polygon class="st1" points="379.31 242.6 336.71 242.6 336.71 177.19 379.31 182.53 379.31 242.6"/>
    <rect class="st1" x="289.73" y="179.51" width="89.43" height="13.33"/>
    <ellipse class="st1" cx="330.8" cy="170.51" rx="27.2" ry="11.2"/>
    <ellipse class="st1" cx="354.77" cy="178.89" rx="18.06" ry="13.95"/>
    <ellipse class="st1" cx="305.56" cy="177.33" rx="10.06" ry="5.2"/>
    <polygon class="st1" points="481.23 317.95 410.9 320.8 402.03 232.4 533.77 253.97 481.23 317.95"/>
    <polygon class="st1" points="540.66 255.64 404.01 240.84 425.38 185.18 531.46 199.53 540.66 255.64"/>
    <rect class="st1" x="405.1" y="190.47" width="41.93" height="41.93"/>
    <ellipse class="st1" cx="435.39" cy="353.51" rx="33.36" ry="24.87"/>
    <ellipse class="st1" cx="114.21" cy="343.45" rx="35.41" ry="22.64"/>
    <rect class="st1" x="97.35" y="294.22" width="42.04" height="65.15"/>
    <rect class="st1" x="128.39" y="320.8" width="148.83" height="45.29"/>
    <ellipse class="st1" cx="117.68" cy="312.27" rx="26.13" ry="21.48"/>
    <circle class="st1" cx="112.55" cy="306.51" r="1.65"/>
    <polygon class="st1" points="126.02 310.17 94.52 314.47 84.07 299.04 113.24 287.36 126.02 310.17"/>
    <polygon class="st1" points="156.98 326.93 134 320.8 134 295.5 149.61 304.86 156.98 326.93"/>
    <polygon class="st1" points="198.23 328.64 158.3 321.09 165.41 291.69 198.23 295.5 198.23 328.64"/>
    <ellipse class="st1" cx="214.47" cy="313.15" rx="21.8" ry="19.44" transform="translate(-131.17 469.97) rotate(-80)"/>
    <ellipse class="st1" cx="253.07" cy="314.28" rx="18.97" ry="21.12" transform="translate(-148.61 352.52) rotate(-56.6)"/>
    <rect class="st1" x="233.99" y="366.09" width="43.23" height="12.28"/>
    <rect class="st1" x="202.8" y="366.09" width="11.66" height="7.3"/>
    <polygon class="st2" points="375.49 314.11 325.61 324.74 310.54 277.08 375.49 288.45 375.49 314.11"/>
    <polygon class="st2" points="326.67 295.5 361.87 296.97 366.39 375.26 323.49 366.09 326.67 295.5"/>
    <rect class="st2" x="370.26" y="366.09" width="6.29" height="14.63"/>
    <polygon class="st2" points="322.07 350.78 373.4 350.78 383.44 390.82 322.07 390.82 322.07 350.78"/>
    <polygon class="st2" points="309.48 273.34 326.67 276.09 326.67 310.17 309.48 310.17 309.48 273.34"/>
    <rect class="st2" x="348.28" y="283.46" width="35.15" height="17.45"/>
    <rect class="st2" x="318.07" y="353.51" width="3.99" height="29.49"/>
    <rect class="st2" x="313.14" y="363" width="15.18" height="20"/>
    <rect class="st2" x="312.67" y="355.04" width="31.31" height="15.91"/>
  </g>
  <g id="_レイヤー_1" data-name="レイヤー_1">
    <g>
      <path class="st0" d="M127.46,252.19l.42,8.11c-16.53.27-42.93,5.63-52.09,8.93l-11.25-11.13c-10.56-20.2-15.84-43.69-15.84-70.48,0-7.83.42-15.52,1.39-23.91,14.31-7.28,32.37-9.48,48.34-11.54l10.83,10.99-.42,7.01c5-.82,11.39-2.61,15.42-4.26.97,3.3,2.08,8.52,3.47,13.74-.14-14.01,1.25-19.1,3.19-31.05,12.78-4.95,24.73-7.56,35.42-7.56,5.42,0,9.17.69,19.17,3.71l10.97,11.13c-4.72,13.6-6.67,26.79-6.67,44.93,0,21.71,2.22,34.76,10.14,59.22-16.53,1.51-34.59,6.87-54.32,16.07l-10.97-10.99c-2.5-3.85-4.86-8.11-7.22-12.92ZM181.91,244.49c-6.25-19.65-8.33-33.39-8.33-54.96,0-18,1.53-30.36,5.28-41.49-5-1.37-8.47-1.92-12.09-1.92-10.14,0-21.25,2.2-31.26,6.18-1.39,9.07-2.64,14.01-2.64,26.93,0,15.66,1.11,23.77,5.42,39.29l-3.47,1.37c-5.56-8.24-10.14-23.77-14.31-48.5-2.5,1.37-11.25,3.85-14.86,4.26-3.06,13.19-4.17,22.53-4.17,34.35,0,5.5,0,7.14.14,9.21l-3.75.55c-4.58-8.79-7.5-22.67-7.5-35.58,0-8.66,1.53-16.76,2.22-25.69-12.92.96-28.89,4.53-37.51,8.38-.83,7.83-1.25,14.56-1.25,20.75,0,24.46,5,48.22,13.61,64.71,11.25-4.67,28.76-7.83,43.9-8.11-.42-8.93-.69-20.61-.69-32.15,0-4.81.56-8.93,2.08-14.56l4.17-.82c1.81,19.51,10.7,47.54,19.73,61.83,15.42-7.14,32.37-12.37,45.29-14.01Z"/>
      <path class="st0" d="M229.83,266.47c-10,5.91-21.95,10.85-29.03,13.46l-10.97-10.85c-7.5-20.61-12.09-35.31-13.34-57.7-.14-1.65-.14-3.3-.14-5.36,0-16.49,3.06-44.24,6.53-58.67l46.26,6.73,11.25,10.99c-1.53,6.18-2.92,11.68-3.89,16.62,8.47-4.81,16.53-7.56,20.14-7.69,14.45-.41,20.7,5.91,27.37,12.78,5.14,5.5,10,9.62,12.22,16.9.83,2.47,1.11,5.63,1.11,9.21,0,12.91-4.17,30.78-4.86,40.12-.42,6.04,4.72,1.79,8.06,11.27.42,1.37,1.11,3.3,3.06,7.83-12.09,6.59-46.95,15.52-64.6,18.69l-11.39-10.99,2.22-13.33ZM285.82,258.78c-.56-1.65-.56-4.95-2.78-4.81-.69,0-1.25.14-1.81.14-3.33,0-4.31-1.1-5.14-3.85-.28-.82-.42-1.92-.42-2.89,0-1.65.28-3.3.56-4.81,1.81-12.09,4.58-30.64,4.58-41.49,0-2.89-.28-5.36-.69-6.87-2.78-9.34-8.75-15.39-23.34-15.11-4.86.14-25,8.38-38.06,24.73-.83-4.12-1.11-8.11-1.11-12.09,0-10.44,2.22-21.16,5.28-33.39l-35.98-5.22c-2.64,12.23-5.42,38.19-5.42,53.44l.14,4.53c.69,12.09,2.36,21.98,4.58,30.5,2.08,7.83,4.45,14.56,6.67,20.88,9.58-3.71,28.89-12.91,35.42-19.92-1.94-3.3-7.5-13.6-8.2-22.67,3.19-6.73,10-15.66,16.95-15.66.56,0,1.11,0,1.67.14,2.92.55,4.31,5.63,4.31,12.91,0,4.81-.56,10.58-1.67,16.76-2.22,13.46-5.83,28.99-7.5,39.29,13.61-2.61,42.37-10.03,51.95-14.56Z"/>
      <path class="st0" d="M300.68,253.28c-4.17-5.22-9.58-9.89-12.92-16.49-4.03-8.11-5.7-17.17-5.7-26.1,0-16.62,5.97-32.56,15.42-40.39,12.5-10.44,25.84-16.21,38.62-16.21,11.39,0,22.37,4.53,31.95,14.43,3.61,3.71,7.5,7.14,11.11,10.99,10.97,11.27,16.25,24.87,16.25,39.84,0,5.91-.69,12.09-2.36,18.41-4.58,17.72-20.98,33.25-39.45,34.62-1.81.14-3.75.27-5.7.27-15.42,0-35.28-4.67-47.23-19.37ZM342.08,256.31c15.98-1.24,30.84-14.98,34.87-30.78,1.53-5.91,2.36-11.68,2.36-17.17,0-13.88-5-26.1-15-36.27-8.47-8.66-18.06-12.78-28.34-12.78-11.39,0-23.34,5.08-35.15,14.84-7.92,6.73-13.61,21.3-13.61,36.68,0,8.11,1.67,16.35,5.28,23.77,8.2,16.62,28.48,21.85,44.45,21.85,1.81,0,3.47,0,5.14-.14ZM324.16,230.89c-8.06-5.08-10-16.21-10-25,0-4.12.42-7.83.83-10.17.97-5.63,3.75-13.19,10.97-13.19.55,0,1.25,0,1.94.14,3.06.55,7.78,5.63,9.31,10.3.97,2.89,2.36,8.24,2.36,15.52,0,4.95-.69,10.85-2.5,17.45-1.11,4.26-4.45,6.46-7.92,6.46-1.67,0-3.47-.55-5-1.51ZM334.3,210.42c0-3.43-.28-6.87-.69-9.89-1.39,1.65-1.94,4.53-2.36,7.01-.42,2.47-.97,6.32-.97,10.44,0,2.75.28,5.5.83,8.24,2.22-2.47,3.19-9.07,3.19-15.8Z"/>
    </g>
    <g>
      <path class="st0" d="M114.81,375.86c-12.84,0-21.43-5.13-25.46-11.98-7.53-4.13-11.35-11.08-11.35-18.32,0-8.66,5.52-17.62,16.87-22.65-3.08-6.24-11.14-18.83-12.31-24.67,7.11-5.54,22.28-10.87,35.85-10.87,4.99,0,9.76.71,13.79,2.42,5.62,2.32,9.44,6.44,13.9,10.07,9.65,7.95,14.75,19.73,18.14,34.03,2.97,12.68,7.64,19.43,14.64,28.39-9.12,8.26-23.02,13.89-35.22,16.11l-7.32-6.75c-5.62,1.81-14.21,4.23-21.53,4.23ZM165.09,353.71c-5.41-7.05-10.18-14.2-13.15-27.08-3.82-16.31-9.23-28.39-21.32-33.42-3.5-1.41-7.74-2.01-12.2-2.01-11.99,0-25.46,4.33-31.51,8.56.74,1.71,2.65,5.34,4.77,9.26l4.99,8.76c3.39-2.42,8.17-4.83,15.06-4.83,4.67,0,8.7,3.02,9.97,7.65-8.06.3-16.55,2.42-22.81,4.73-7.85,3.02-16.97,9.87-16.97,20.03,0,6.34,4.56,18.73,24.4,18.73,11.24,0,25.88-6.14,26.94-6.64,1.7,2.82,2.55,5.84,4.03,8.66,9.23-1.91,21.11-6.75,27.79-12.38ZM103.78,336.9c-.21-4.13,3.61-6.24,7.32-7.45,3.71-1.11,8.27-1.61,12.84-2.52.53,3.02,1.17,5.24,1.91,7.35.64,2.11,1.49,4.33,2.55,7.25-2.44.91-6.36,1.41-10.29,1.41-7,0-14.21-1.71-14.32-6.04Z"/>
      <path class="st0" d="M230.97,376.36c-7.96,2.62-16.65,3.93-24.61,5.44l-8.59-8.15.64-3.12c-7.21,3.42-15.49,6.75-22.17,6.95l-8.59-8.05c-6.47-12.58-9.33-30.91-9.33-48.33,0-11.98,1.38-23.46,3.92-32.52,1.27-.3,2.86-.5,4.67-.5,8.27,0,21.43,3.02,29.07,5.13l3.61,3.22c6.68-3.32,13.79-6.44,18.88-6.44,5.62,0,9.44,2.92,12.73,6.95,1.27,1.61,2.33,3.12,3.71,4.53,7.43-5.23,11.56-6.24,21.75-7.45.85-.1,1.59-.1,2.23-.1,7.21,0,10.4,4.23,15.17,7.65,8.27,5.94,10.4,16.71,9.87,25.87-.74,13.09-2.97,22.05-4.99,34.83l7.64,6.04c1.59,1.31,3.18,3.22,3.18,6.64,0,1.51-.32,3.32-1.06,5.44-17.93,5.94-32.88,8.46-51.24,11.48l-8.49-7.95,2.02-7.55ZM276.9,369.42c.21-.6.32-1.31.32-1.91,0-1.21-.42-2.32-1.59-2.32-2.33,0-4.46.2-6.68-.81-2.02-1.01-3.08-2.82-3.08-5.74,0-.71.11-1.51.21-2.42,2.12-13.99,4.67-23.16,5.41-37.05.11-1.01.11-2.11.11-3.12,0-8.96-2.55-18.42-12.41-18.42-.64,0-1.38,0-2.02.1-4.14.5-8.38.91-12.2,2.42-3.71,1.51-7.96,4.23-17.08,11.48,0-9.56-2.65-17.82-9.55-17.82s-21.75,7.75-30.55,13.79c.42-4.93,1.06-7.55,2.86-11.98-7.11-1.81-20.58-4.53-25.25-3.93-2.33,8.56-3.29,19.63-3.29,29,0,3.62.21,6.95.42,9.87,1.17,13.69,2.86,25.37,7.53,34.93,7-.71,18.46-6.34,24.93-9.87-1.59-4.13-3.29-8.46-4.67-13.29-1.59-5.34-2.55-11.18-2.65-18.12,0-4.23,3.08-13.39,9.55-13.39,5.09,0,6.47,4.63,6.9,8.76.32,3.42.53,7.05.53,10.67,0,6.95-.53,13.99-.64,20.54-.21,6.75-.53,13.49-1.27,18.02,3.39-.6,7.74-1.41,12.2-2.42,5.09-1.21,10.18-2.72,13.68-4.83.64-8.86,1.06-16.51,1.06-23.66,0-5.44-.21-10.57-.85-15.91,0-2.72,4.56-9.67,9.12-9.46,3.29.1,4.88,6.54,4.88,14.4,0,1.21,0,2.42-.11,3.62-.53,8.66-2.02,17.92-2.33,20.54-1.38,9.97-3.39,18.12-6.05,28.09,13.37-2.11,27.26-4.73,42.54-9.77Z"/>
    </g>
    <path class="st0" d="M312.88,387.04l-4.53-33.03c5.71-1.55,9.89-2.5,13.71-3.23-1.16-8.29-1.09-19.97-.55-29.35-2.35-.37-4.5-.47-5.53-.45l-8.27-11.16c-2.24-8.9-2.64-18-1.84-26.59.56-5.98,1.64-11.52,3.15-16.65,17.42,9.34,27.16,12.11,37.44,14.05,1.45.28,2.91.43,4.38.58,12.04,1.25,25.58-1.38,32.5-3.68,3.03,4.08,4.72,6.65,7.73,10.86-3.34,11.47-5.03,17.33-5.7,24.55-.22,2.37-.34,4.87-.39,7.88-5.75,1.92-12.91,1.93-18.33,1.62.27,5.68,1.01,15.94,2.77,26.31l7.96,1.2,8.2,10.78,1.91,30.62-4.04-.54c-24.76-2.56-49.19,2.33-62.68,6.84l-7.87-10.62ZM374.79,375.09l-1.45-21.02c-3.59-.5-8.86-1.29-13.14-1.61-4.72-17.58-5.94-38.58-5.96-45.74,6.79.32,14.14.71,18.44-.36l.23-4.88c.56-5.98,1.91-10.74,3.63-16.97-4.19,1.08-13.33,2.77-24.69,1.59-1.91-.2-4.05-.42-6.17-.89-10.28-1.82-20.01-4.71-34.1-12.07-.73,2.94-1.4,6.52-1.77,10.38-.65,6.97-.48,14.91,1.24,22,1.45.28,4.27.57,7.75.93l8.34.74c-.26,1.61-.6,3.96-.84,6.58-1.06,11.33-1.65,29.87.83,40.94-5.65.92-9.82,1.75-14.01,2.83l3.06,23.2c11.95-3.79,36.67-8.15,58.59-5.63Z"/>
    <path class="st0" d="M399.31,374.06c-4.42-11.23-5.97-20.82-2.75-29.07,2.14-5.5,6.76-10.57,14.33-14.76-4.84-12.98-6.62-20.28-12.18-35.38,1.86-1.39,3.81-3.01,5.86-4.32l-8.8-24.29c-.39-21.02,2-56.54,10.13-77.4,33.89-11.89,83.21-7.46,112.41,2.86,15.65,5.57,19.97,20.46,25.67,33.51,6.4,14.64,7.38,32.46,1.48,47.59-2.86,7.34-7.44,14.01-13.75,19.47-17.08,14.48-24.35,15.08-43.5,21.88l1.48,2.42-5.64,34.25-7.96-.46c.24,2.21,1.97,3.41,3.05,5.15,5.67,8.02,6.88,19.05,3.04,28.92-5,12.84-18.67,23.63-41.42,22.16-7.11-.39-13-1.63-17.78-3.49-15.47-6.03-19.64-18.48-23.67-29.03ZM433.93,373.28c20.19,1.26,30.48-8.2,33.6-16.23.45-1.15.7-2.37.87-3.36.91-5.72-3.34-13.45-14.23-17.69-4.39-1.71-10.1-2.88-16.92-2.89-20.83-.19-31.41,8.89-34.35,16.46-.45,1.15-.61,2.14-.78,3.13-.82,5.49,3.61,12.76,14.69,17.08,4.58,1.79,10.29,2.95,17.12,3.5ZM469.73,316.97l2.47-15.94-23.77-.54-.5-5.48c10.95-9.47,37.31-15.57,51.47-21.42,6.84-2.88,12.26-6.05,19.96-12.83,5.29-4.54,9.04-10.21,11.45-16.4,6.7-17.2,2.25-37.95-15.59-44.11-27.86-9.8-74.43-13.94-103.93-4.31-7.11,19.94-7.75,49.81-7.52,59.4,8.09-2.13,15.61-4.48,24.46-6.32,6.69-1.36,27.34-4.67,38.04-.5,3.82,1.49,6.43,3.83,6.71,7.63.13,1.37-.03,2.89-.56,4.27-1.52,3.9-5.79,7.52-12.07,10.09-27.37,11.52-42.41,20.19-51.71,27.13l8.58,23.15c12.5-3.85,31.77-5.32,52.54-3.83Z"/>
  </g>
</svg>